<svg width="46" height="46" viewBox="0 0 46 46" fill="none" xmlns="http://www.w3.org/2000/svg">
<g clip-path="url(#clip0_1_585)">
<path d="M18.0496 42.6067C18.2366 42.6067 18.416 42.5324 18.5483 42.4002C18.6805 42.2679 18.7548 42.0885 18.7548 41.9015C18.7548 41.7144 18.6805 41.535 18.5483 41.4028C18.416 41.2705 18.2366 41.1962 18.0496 41.1962H11.7023C11.5153 41.1962 11.3359 41.2705 11.2036 41.4028C11.0714 41.535 10.9971 41.7144 10.9971 41.9015C10.9971 42.0885 11.0714 42.2679 11.2036 42.4002C11.3359 42.5324 11.5153 42.6067 11.7023 42.6067H18.0496ZM28.2757 20.185V21.8727C28.2817 21.8741 28.287 21.8762 28.293 21.8773C29.6327 21.0951 30.6771 19.8929 31.2644 18.4569C31.8516 17.021 31.9489 15.4315 31.5412 13.9346C31.1335 12.4378 30.2435 11.1172 29.0092 10.1774C27.7748 9.2376 26.265 8.73111 24.7137 8.73637C23.1623 8.74163 21.656 9.25836 20.428 10.2065C19.2001 11.1546 18.3191 12.4812 17.9216 13.9808C17.524 15.4804 17.6321 17.0692 18.2291 18.5011C18.826 19.9331 19.8785 21.1281 21.2236 21.9013V20.202C20.3095 19.4736 19.6442 18.4794 19.3197 17.3566C18.9951 16.2338 19.0273 15.038 19.4117 13.9343C19.7962 12.8306 20.514 11.8735 21.4659 11.1954C22.4178 10.5172 23.5568 10.1515 24.7255 10.1487C25.8943 10.1459 27.035 10.5062 27.9902 11.1797C28.9453 11.8533 29.6677 12.8069 30.0574 13.9087C30.4472 15.0105 30.4851 16.2062 30.1659 17.3306C29.8468 18.4549 29.1863 19.4523 28.2757 20.185Z" fill="white"/>
<path d="M40.0886 5.93359H8.35233C7.79139 5.93425 7.25362 6.15737 6.85698 6.554C6.46034 6.95064 6.23723 7.48841 6.23657 8.04935V23.5649C6.23723 24.1258 6.46034 24.6636 6.85698 25.0602C7.25362 25.4569 7.79139 25.68 8.35233 25.6806H21.2235V24.2701H13.2475C13.0855 22.8406 12.4434 21.5083 11.4261 20.4911C10.4089 19.4738 9.07658 18.8317 7.64707 18.6697V12.9445C9.07658 12.7825 10.4089 12.1404 11.4261 11.1232C12.4434 10.1059 13.0855 8.7736 13.2475 7.3441H35.1935C35.3554 8.7736 35.9975 10.1059 37.0148 11.1232C38.0321 12.1404 39.3644 12.7825 40.7939 12.9445V18.6697C39.3644 18.8317 38.0321 19.4738 37.0148 20.4911C35.9975 21.5083 35.3554 22.8406 35.1935 24.2701H31.9253C32.5615 24.5768 33.0902 25.0684 33.4423 25.6806H40.0886C40.6496 25.68 41.1873 25.4569 41.584 25.0602C41.9806 24.6636 42.2037 24.1258 42.2044 23.5649V8.04935C42.2037 7.48841 41.9806 6.95064 41.584 6.554C41.1873 6.15737 40.6496 5.93425 40.0886 5.93359ZM11.8222 24.2701H8.35233C8.16537 24.2698 7.98615 24.1954 7.85395 24.0632C7.72175 23.9311 7.64735 23.7518 7.64707 23.5649V20.095C8.6998 20.2486 9.67483 20.7378 10.4271 21.4901C11.1794 22.2424 11.6686 23.2174 11.8222 24.2701ZM7.64707 11.5192V8.04935C7.64735 7.86239 7.72175 7.68317 7.85395 7.55097C7.98615 7.41877 8.16537 7.34438 8.35233 7.3441H11.8222C11.6686 8.39682 11.1794 9.37185 10.4271 10.1241C9.67483 10.8764 8.6998 11.3657 7.64707 11.5192ZM40.7939 23.5649C40.7936 23.7518 40.7192 23.9311 40.587 24.0632C40.4548 24.1954 40.2756 24.2698 40.0886 24.2701H36.6188C36.7723 23.2174 37.2616 22.2424 38.0139 21.4901C38.7661 20.7378 39.7412 20.2486 40.7939 20.095V23.5649ZM40.7939 11.5192C39.7412 11.3657 38.7661 10.8764 38.0139 10.1241C37.2616 9.37185 36.7723 8.39682 36.6188 7.3441H40.0886C40.2756 7.34438 40.4548 7.41877 40.587 7.55097C40.7192 7.68317 40.7936 7.86239 40.7939 8.04935V11.5192Z" fill="white"/>
<path d="M24.7981 11.587C24.6809 11.5872 24.5685 11.6338 24.4855 11.7164C24.4024 11.7991 24.3553 11.9112 24.3545 12.0284V12.563C23.1203 12.6946 22.5801 13.4164 22.5801 14.2514C22.5801 15.1859 23.1813 15.6263 23.8862 15.9186C24.4581 15.7703 25.0584 15.77 25.6305 15.9179C26.2026 16.0657 26.7276 16.3567 27.1561 16.7635C26.6942 14.9877 23.699 15.3858 23.699 14.2514C23.699 13.8766 23.9973 13.5105 24.7981 13.5105C25.2937 13.5051 25.774 13.6821 26.1476 14.0077C26.2555 14.1255 26.4033 14.199 26.5623 14.214C26.6971 14.2168 26.8276 14.166 26.9251 14.0728C27.0227 13.9797 27.0793 13.8517 27.0828 13.7168C27.0817 13.6092 27.048 13.5045 26.9861 13.4164C26.7676 13.1673 26.5017 12.9644 26.2038 12.8194C25.9059 12.6745 25.582 12.5904 25.2512 12.5722V12.0284C25.2505 11.9697 25.2383 11.9116 25.2151 11.8576C25.1919 11.8036 25.1583 11.7547 25.1163 11.7137C25.0742 11.6727 25.0244 11.6404 24.9698 11.6186C24.9152 11.5969 24.8569 11.5861 24.7981 11.587Z" fill="white"/>
<path d="M22.281 44.0172H6.23653C5.86244 44.0172 5.50368 43.8686 5.23916 43.6041C4.97464 43.3396 4.82603 42.9808 4.82603 42.6067V3.11263C4.82603 2.73854 4.97464 2.37978 5.23916 2.11525C5.50368 1.85073 5.86244 1.70213 6.23653 1.70213H10.9286L12.2474 4.15217C12.3078 4.26442 12.3975 4.35819 12.507 4.42351C12.6165 4.48883 12.7416 4.52326 12.8691 4.52313H19.7044C19.8317 4.52313 19.9567 4.48864 20.066 4.42333C20.1754 4.35801 20.265 4.26431 20.3253 4.15217L21.6442 1.70213H25.9836C26.3577 1.70213 26.7164 1.85073 26.9809 2.11525C27.2455 2.37978 27.3941 2.73854 27.3941 3.11263V4.52313H28.8046V3.11263C28.8037 2.36471 28.5062 1.64767 27.9774 1.11881C27.4485 0.589948 26.7315 0.292466 25.9836 0.291626L6.23653 0.291626C5.48861 0.292466 4.77157 0.589948 4.24271 1.11881C3.71385 1.64767 3.41637 2.36471 3.41553 3.11263V42.6067C3.41646 43.3546 3.71397 44.0716 4.24281 44.6004C4.77165 45.1292 5.48864 45.4268 6.23653 45.4277H22.4044C22.3232 45.2014 22.2815 44.9629 22.281 44.7224V44.0172ZM20.0422 1.70213L19.283 3.11263H13.2897L12.5305 1.70213H20.0422Z" fill="white"/>
<path d="M33.2124 27.0911C32.9676 27.0917 32.7247 27.135 32.4948 27.2191C32.4618 26.9012 32.3569 26.5949 32.1881 26.3234C32.0193 26.0519 31.791 25.8224 31.5205 25.6521C31.2499 25.4818 30.9442 25.3753 30.6264 25.3405C30.3087 25.3057 29.9871 25.3437 29.6862 25.4514V25.328C29.6871 24.9893 29.6065 24.6553 29.4512 24.3542C29.2958 24.0532 29.0702 23.794 28.7935 23.5986C28.5168 23.4032 28.1971 23.2773 27.8615 23.2315C27.5258 23.1857 27.1841 23.2215 26.8652 23.3357V19.3334C26.8688 19.0533 26.8167 18.7752 26.712 18.5154C26.6073 18.2555 26.4521 18.0191 26.2553 17.8197C26.0585 17.6203 25.824 17.462 25.5655 17.354C25.3071 17.2459 25.0297 17.1903 24.7496 17.1903C24.4694 17.1903 24.1921 17.2459 23.9336 17.354C23.6751 17.462 23.4407 17.6203 23.2439 17.8197C23.0471 18.0191 22.8918 18.2555 22.7871 18.5154C22.6824 18.7752 22.6304 19.0533 22.634 19.3334V29.7344C21.9832 29.1148 21.3359 28.4914 20.6921 27.8644C20.2879 27.488 19.7564 27.2782 19.204 27.277C18.8452 27.2795 18.4924 27.3692 18.1759 27.5382C17.8593 27.7072 17.5886 27.9506 17.3869 28.2474C17.1063 28.6783 16.9711 29.1879 17.0012 29.7013C17.0313 30.2147 17.225 30.7049 17.5541 31.1001L22.1033 36.3758C22.5166 36.8948 22.8785 37.4527 23.1841 38.0416C23.7018 39.0367 24.0594 40.1073 24.2437 41.2138C24.0872 41.2485 23.9472 41.3356 23.8468 41.4606C23.7464 41.5856 23.6917 41.7411 23.6915 41.9014V44.7224C23.6915 44.9095 23.7658 45.0888 23.8981 45.2211C24.0304 45.3534 24.2097 45.4277 24.3968 45.4277H33.565C33.7521 45.4277 33.9315 45.3534 34.0637 45.2211C34.196 45.0888 34.2703 44.9095 34.2703 44.7224V41.9014C34.2703 41.7144 34.196 41.535 34.0637 41.4027C33.9315 41.2705 33.7521 41.1962 33.565 41.1962H33.2808C33.4193 40.4618 33.6809 39.7561 34.0545 39.109C34.0789 39.0716 34.1014 39.033 34.1218 38.9933C35.1906 37.1692 35.3282 34.8796 35.3282 33.0858V29.2069C35.3275 28.646 35.1044 28.1082 34.7078 27.7115C34.3111 27.3149 33.7734 27.0918 33.2124 27.0911ZM32.8598 44.0172H25.102V42.6067H32.8598V44.0172ZM33.9177 33.0858C33.9177 34.7064 33.8013 36.7633 32.8817 38.3258C32.8704 38.3406 32.8605 38.3565 32.851 38.3727C32.3475 39.2448 32.0081 40.2017 31.8495 41.1962H25.6673C25.471 39.8673 25.0544 38.5805 24.4345 37.3889C24.0827 36.7117 23.6655 36.0706 23.1887 35.4748L18.6398 30.2002C18.5046 30.0427 18.4229 29.8463 18.4065 29.6393C18.3901 29.4323 18.4398 29.2255 18.5485 29.0486C18.6198 28.9392 18.7169 28.849 18.8313 28.786C18.9457 28.7231 19.0738 28.6892 19.2044 28.6875C19.396 28.6869 19.5808 28.7586 19.722 28.8881C23.1108 32.1869 23.1108 32.1859 23.6125 31.975C23.7405 31.9205 23.8496 31.8296 23.9264 31.7136C24.0032 31.5977 24.0443 31.4617 24.0445 31.3226V19.3334C24.0424 19.2395 24.0591 19.1461 24.0936 19.0587C24.1281 18.9713 24.1797 18.8917 24.2454 18.8245C24.311 18.7574 24.3895 18.704 24.4761 18.6676C24.5626 18.6311 24.6556 18.6124 24.7496 18.6124C24.8435 18.6124 24.9365 18.6311 25.0231 18.6676C25.1097 18.704 25.1881 18.7574 25.2538 18.8245C25.3195 18.8917 25.3711 18.9713 25.4056 19.0587C25.4401 19.1461 25.4568 19.2395 25.4547 19.3334V31.6753C25.4547 31.8623 25.529 32.0417 25.6612 32.174C25.7935 32.3062 25.9729 32.3805 26.1599 32.3805C26.347 32.3805 26.5263 32.3062 26.6586 32.174C26.7909 32.0417 26.8652 31.8623 26.8652 31.6753V25.328C26.8652 25.141 26.9395 24.9616 27.0717 24.8293C27.204 24.6971 27.3834 24.6228 27.5704 24.6228C27.7575 24.6228 27.9368 24.6971 28.0691 24.8293C28.2014 24.9616 28.2757 25.141 28.2757 25.328V31.6753C28.2757 31.8623 28.35 32.0417 28.4822 32.174C28.6145 32.3062 28.7939 32.3805 28.9809 32.3805C29.168 32.3805 29.3473 32.3062 29.4796 32.174C29.6119 32.0417 29.6862 31.8623 29.6862 31.6753V27.4438C29.6862 27.2567 29.7605 27.0773 29.8927 26.9451C30.025 26.8128 30.2044 26.7385 30.3914 26.7385C30.5785 26.7385 30.7578 26.8128 30.8901 26.9451C31.0224 27.0773 31.0967 27.2567 31.0967 27.4438V31.6753C31.0967 31.8623 31.171 32.0417 31.3032 32.174C31.4355 32.3062 31.6149 32.3805 31.8019 32.3805C31.989 32.3805 32.1683 32.3062 32.3006 32.174C32.4329 32.0417 32.5072 31.8623 32.5072 31.6753V29.2069C32.5072 29.0198 32.5815 28.8405 32.7137 28.7082C32.846 28.5759 33.0254 28.5016 33.2124 28.5016C33.3995 28.5016 33.5788 28.5759 33.7111 28.7082C33.8434 28.8405 33.9177 29.0198 33.9177 29.2069V33.0858Z" fill="white"/>
</g>
<defs>
<clipPath id="clip0_1_585">
<rect width="45.1361" height="45.1361" fill="white" transform="translate(0.241943 0.291626)"/>
</clipPath>
</defs>
</svg>
