<svg width="56" height="46" viewBox="0 0 56 46" fill="none" xmlns="http://www.w3.org/2000/svg">
<path d="M55.9434 23.8961C55.4142 22.0361 54.8818 20.1749 54.3462 18.3123C54.1544 17.6316 53.7709 17.4207 53.0902 17.6086C52.3711 17.8003 51.6482 17.9921 50.9387 18.2279C50.6473 18.32 50.5284 18.2279 50.3635 17.9998C49.8362 17.2558 49.2858 16.529 48.724 15.8138C48.467 15.4878 48.1602 15.2021 47.8784 14.8991C48.2791 14.1705 48.6703 13.4591 49.0653 12.7554C49.5063 11.9692 49.4028 11.6048 48.6051 11.1581C47.0021 10.2632 45.3977 9.36838 43.7921 8.47354C43.0903 8.09004 42.6992 8.19742 42.3003 8.90882C41.9015 9.62022 41.4777 10.3834 41.0616 11.1236C39.7355 10.785 38.3707 10.6225 37.0022 10.6403C36.8105 10.6403 36.7203 10.579 36.6667 10.3815C36.4653 9.63364 36.2448 8.8954 36.032 8.1514C35.8191 7.4074 35.4433 7.2099 34.7242 7.41891C32.8872 7.94175 31.0515 8.46843 29.2171 8.99894C28.5671 9.1907 28.3504 9.5742 28.5383 10.2396C28.7492 10.9836 28.9659 11.7237 29.1768 12.4677C29.265 12.7918 29.1577 12.9433 28.8221 12.9567C28.7336 12.9568 28.6452 12.951 28.5575 12.9394C26.6821 12.7113 24.8087 12.4907 22.9372 12.2472C22.7334 12.2145 22.5475 12.1114 22.4118 11.9558C21.8902 11.3129 21.2236 10.8029 20.4667 10.4675C19.7098 10.1321 18.8843 9.98079 18.0576 10.0261C17.231 10.0714 16.4269 10.3119 15.7112 10.728C14.9955 11.1441 14.3886 11.7238 13.9403 12.4198C12.132 15.2002 10.3449 17.9959 8.55012 20.7878C8.11087 21.4284 7.83383 22.166 7.74285 22.9374C7.68724 23.5663 7.73326 24.2048 7.66423 24.8338C7.46097 26.7206 7.2232 28.6075 6.99885 30.4943C6.97381 30.9435 6.81487 31.3749 6.54248 31.733C4.62497 34.0609 2.74196 36.4175 0.843624 38.7607C0.349762 39.3306 0.0561178 40.0465 0.00758697 40.799C-0.0406478 41.5136 0.142053 42.2247 0.528738 42.8275C0.915424 43.4303 1.48562 43.8929 2.1552 44.147C3.57992 44.6877 5.08133 44.2621 6.07269 43.0349C8.29317 40.2928 10.506 37.5482 12.7111 34.801C13.1484 34.2703 13.4157 33.6201 13.4781 32.9353C13.5376 32.3792 13.6104 31.8251 13.6852 31.1769C14.2125 31.8346 14.6708 32.4041 15.1272 32.9813C15.0582 33.106 14.9987 33.2172 14.9354 33.3303C13.6967 35.522 12.4427 37.7118 11.2174 39.9151C10.9855 40.3316 10.8449 40.7927 10.805 41.2677C10.7652 41.7428 10.8269 42.2209 10.9862 42.6702C11.1455 43.1196 11.3986 43.5298 11.7288 43.8737C12.0589 44.2176 12.4585 44.4873 12.901 44.6647C14.55 45.334 16.2815 44.6647 17.223 43.0023C18.7571 40.3024 20.2847 37.6032 21.8059 34.9046C21.8868 34.741 22.0169 34.6069 22.1779 34.5211C22.663 34.3466 23.1693 34.2258 23.5834 34.1107C24.5192 35.2823 25.4204 36.4118 26.3427 37.5795C25.9592 38.2813 25.5297 39.0445 25.1079 39.8096C24.7915 40.3848 24.9161 40.8355 25.4799 41.1518C27.1724 42.0953 28.8662 43.0368 30.5613 43.9764C31.1365 44.2947 31.568 44.1681 31.894 43.5928C32.3292 42.8258 32.7492 42.0588 33.2017 41.2611C34.5466 41.6036 35.9289 41.7775 37.3167 41.7789C37.4126 41.7789 37.5545 41.9399 37.589 42.0512C37.8172 42.7894 38.0243 43.5334 38.2352 44.2774C38.4269 44.9658 38.8104 45.1805 39.4892 44.9888C41.3301 44.4698 43.1683 43.9476 45.004 43.4222C45.702 43.2208 45.9129 42.8297 45.7154 42.1336C45.5179 41.4376 45.3319 40.6916 45.0961 39.9802C45.0701 39.9311 45.0551 39.8769 45.0522 39.8214C45.0492 39.7659 45.0583 39.7104 45.079 39.6588C45.0996 39.6072 45.1311 39.5607 45.1715 39.5225C45.2119 39.4843 45.2601 39.4553 45.3127 39.4376C45.5822 39.2929 45.8388 39.1255 46.0797 38.9371C46.8793 38.2986 47.6674 37.6428 48.4901 36.9659C49.1804 37.3494 49.9224 37.7617 50.6588 38.1759C51.3222 38.5498 51.7402 38.4443 52.1084 37.7924C53.0173 36.1676 53.9237 34.5409 54.8275 32.9123C55.2685 32.1223 55.1669 31.7867 54.3864 31.3457C53.6597 30.9372 52.931 30.5326 52.2005 30.1242C52.5471 28.8013 52.7167 27.4382 52.7048 26.0706C52.7048 25.8405 52.8121 25.7753 53.0077 25.7216C53.7747 25.5126 54.5417 25.2902 55.3087 25.0601C55.8974 24.8836 56.1141 24.4886 55.9434 23.8961ZM12.1301 29.7407C12.0132 30.7225 11.9384 31.7062 11.7869 32.6841C11.7398 33.0568 11.6007 33.412 11.3823 33.7176C9.17906 36.4827 6.95283 39.2324 4.72851 41.9783C4.11299 42.7453 3.01617 42.8776 2.32203 42.3081C1.57803 41.6926 1.4975 40.6782 2.14753 39.8671C4.03437 37.5297 5.90011 35.1845 7.81571 32.8682C8.32781 32.2785 8.63405 31.5381 8.68818 30.7589C8.77447 29.6218 8.94129 28.4962 9.08319 27.2844C9.23276 27.4167 9.3248 27.503 9.41684 27.5816C9.99462 28.1005 10.6823 28.482 11.4283 28.6976C12.0016 28.8567 12.1992 29.1578 12.1301 29.7407ZM20.5864 33.6083C18.9475 36.5102 17.3081 39.4088 15.6679 42.3043C15.5005 42.6201 15.2375 42.875 14.9165 43.0324C14.5956 43.1897 14.233 43.2416 13.8808 43.1806C13.5269 43.1285 13.2012 42.9576 12.9572 42.6959C12.7133 42.4342 12.5656 42.0973 12.5386 41.7405C12.5178 41.365 12.6021 40.9912 12.7821 40.661C14.0745 38.3101 15.4052 35.9803 16.7283 33.6505C17.1368 32.9295 17.1118 32.7455 16.5941 32.0878C15.4206 30.6228 14.2503 29.1565 13.0831 27.689C12.8732 27.4031 12.5653 27.2044 12.2183 27.131C9.70638 26.5749 8.59998 23.8712 9.98826 21.6929C11.7549 18.9432 13.5222 16.1947 15.2902 13.4476C15.6055 12.9198 16.052 12.4824 16.5862 12.1781C17.1204 11.8737 17.7242 11.7125 18.339 11.7103C19.5797 11.7602 20.5614 12.253 21.246 13.2731C21.3501 13.4448 21.4936 13.5891 21.6647 13.6942C21.8358 13.7992 22.0295 13.8619 22.2297 13.8771C25.5029 14.2606 28.7684 14.6671 32.0378 15.066C32.5191 15.1235 32.8182 15.4495 32.7914 15.8483C32.7626 16.2874 32.4079 16.5789 31.9093 16.5233C30.5229 16.3718 29.1404 16.1935 27.7579 16.0305C26.1242 15.8387 24.4885 15.6316 22.8529 15.4552C22.1702 15.3785 21.9727 15.5664 21.7273 16.1954C21.504 16.7583 21.2293 17.2994 20.9066 17.8118C19.3918 20.1953 17.8539 22.5635 16.3276 24.9393C15.8635 25.6602 15.8789 25.8482 16.4196 26.5231C17.7478 28.185 19.0766 29.8468 20.4061 31.5087C20.9756 32.2124 21.0293 32.826 20.5864 33.6083ZM21.9708 22.2145C21.8308 23.4858 21.6793 24.7072 21.572 25.9172C21.5125 26.5998 21.5413 26.6037 20.8644 26.7935C20.3889 26.9258 19.9191 27.0773 19.4378 27.1885C19.3714 27.1985 19.3037 27.1936 19.2394 27.1744C19.1751 27.1552 19.1158 27.122 19.0658 27.0773C18.7168 26.6746 18.3812 26.2604 18.0687 25.829C18.0345 25.7716 18.0142 25.7072 18.0092 25.6406C18.0042 25.5741 18.0147 25.5073 18.0399 25.4455C18.2163 25.1118 18.4368 24.7993 18.642 24.4867C19.2844 23.4858 19.9287 22.4887 20.594 21.4513C21.1003 21.7293 21.5758 21.9939 21.9708 22.2145ZM51.838 24.2854C51.1305 24.4867 50.9521 24.7092 50.9886 25.4512C51.0657 27.0493 50.8712 28.6488 50.4133 30.1817C50.2503 30.734 50.398 31.0772 50.8985 31.3572L53.0672 32.5614C52.3634 33.8327 51.6616 35.0867 50.9406 36.3811L48.9157 35.2517C48.2178 34.8682 47.957 34.8969 47.4316 35.4818C46.3662 36.6604 45.1091 37.6504 43.7135 38.4098C43.1977 38.6898 43.0692 39.0023 43.2226 39.5756C43.4412 40.3618 43.6656 41.1518 43.8957 41.9649L39.7002 43.1672C39.5084 42.4884 39.3167 41.8249 39.1249 41.1653C39.0923 41.0521 39.0693 40.9409 39.0367 40.8316C38.8584 40.2142 38.5765 40.0033 37.9341 40.0397C36.4488 40.1301 34.9588 39.9752 33.5238 39.5814C33.3935 39.545 33.2573 39.5028 33.1231 39.4664C32.6034 39.3245 32.2736 39.4491 32.0071 39.9208C31.6543 40.5363 31.3149 41.1576 30.9697 41.777C30.9103 41.8863 30.8412 41.9917 30.7588 42.1259C29.4817 41.4145 28.2238 40.7166 26.9506 40.0052C27.3552 39.2842 27.7425 38.59 28.1318 37.8959C28.452 37.3207 28.406 36.9908 27.917 36.5536C26.7113 35.4823 25.7022 34.2085 24.9353 32.7896C24.6477 32.2527 24.3255 32.1242 23.7368 32.2853L22.7167 32.5748C22.6715 32.5792 22.6259 32.5792 22.5806 32.5748C22.5576 30.8893 21.2076 29.9746 20.3946 28.7033C21.1194 28.4924 21.8308 28.2892 22.5441 28.0801C23.1194 27.9172 23.3112 27.6525 23.292 27.0677C23.1972 25.4199 23.3919 23.7682 23.8672 22.1876C24.0321 21.6584 23.8672 21.3113 23.3859 21.0371C22.78 20.6977 22.1722 20.3621 21.5259 20.0055C21.8884 19.4302 22.2469 18.8895 22.5902 18.3372C22.7819 18.0343 22.9296 17.7102 23.1232 17.4149C23.1591 17.3608 23.2066 17.3154 23.2624 17.2822C23.3182 17.249 23.3807 17.2288 23.4454 17.2232C25.3974 17.4456 27.3475 17.6872 29.2919 17.9211C30.1759 18.0285 31.0541 18.1532 31.9361 18.2356C33.1576 18.3526 34.3426 17.344 34.4749 16.1072C34.5557 15.4837 34.3919 14.8531 34.018 14.3476C33.6441 13.8422 33.0891 13.5011 32.4692 13.3958C32.0416 13.3344 31.614 13.2884 31.1691 13.229C30.9084 12.3105 30.6457 11.392 30.3734 10.4294L34.5708 9.22521C34.7913 9.99222 35.008 10.7266 35.2189 11.4649C35.4299 12.2031 35.6331 12.3719 36.4001 12.3373C37.9731 12.2633 39.5476 12.4499 41.0597 12.8896C41.7251 13.0813 42.0012 12.9624 42.3329 12.3603C42.7164 11.6739 43.0999 10.9893 43.5026 10.2683L47.3185 12.3891L46.1488 14.4984C45.8228 15.0871 45.8803 15.4073 46.3865 15.8636C47.5594 16.9158 48.5478 18.157 49.3108 19.5357C49.6559 20.1531 49.932 20.2701 50.6166 20.0784C51.2666 19.8962 51.9071 19.7102 52.5533 19.528C52.6626 19.4993 52.77 19.482 52.9118 19.4532C53.3107 20.8492 53.7057 22.2183 54.1103 23.6315C53.3395 23.8578 52.5897 24.0745 51.838 24.2854Z" fill="white"/>
<path d="M23.2094 3.63401e-05C22.2082 -0.003759 21.2283 0.289812 20.394 0.843539C19.5597 1.39727 18.9087 2.18621 18.5233 3.11039C18.1379 4.03456 18.0356 5.05234 18.2293 6.03472C18.423 7.01711 18.9041 7.91987 19.6114 8.62857C20.3188 9.33727 21.2206 9.82 22.2026 10.0156C23.1846 10.2112 24.2026 10.1108 25.1275 9.72717C26.0524 9.34355 26.8426 8.69397 27.3979 7.86077C27.9532 7.02756 28.2487 6.04824 28.2468 5.04694C28.2447 3.7107 27.7137 2.42962 26.7697 1.48386C25.8257 0.538092 24.5457 0.0045971 23.2094 3.63401e-05ZM23.2094 8.39684C22.7688 8.39684 22.3324 8.31004 21.9253 8.14141C21.5182 7.97277 21.1482 7.72559 20.8366 7.41399C20.525 7.10239 20.2779 6.73247 20.1092 6.32534C19.9406 5.91821 19.8538 5.48186 19.8538 5.04119C19.8538 4.60051 19.9406 4.16416 20.1092 3.75703C20.2779 3.34991 20.525 2.97998 20.8366 2.66838C21.1482 2.35678 21.5182 2.1096 21.9253 1.94097C22.3324 1.77233 22.7688 1.68553 23.2094 1.68553C24.0994 1.68553 24.9529 2.03907 25.5823 2.66838C26.2116 3.29769 26.5651 4.15121 26.5651 5.04119C26.5651 5.93116 26.2116 6.78468 25.5823 7.41399C24.9529 8.0433 24.0994 8.39684 23.2094 8.39684Z" fill="white"/>
<path d="M37.1614 17.4034C35.4194 17.397 33.7146 17.9077 32.263 18.8711C30.8115 19.8344 29.6786 21.2068 29.0078 22.8146C28.337 24.4224 28.1586 26.1931 28.495 27.9023C28.8315 29.6116 29.6677 31.1826 30.8978 32.4162C32.1279 33.6498 33.6965 34.4905 35.4048 34.8318C37.1131 35.1731 38.8843 34.9996 40.494 34.3334C42.1037 33.6672 43.4793 32.5382 44.4468 31.0894C45.4142 29.6406 45.9298 27.9373 45.9283 26.1952C45.9314 23.8669 45.0095 21.6326 43.3654 19.9839C41.7214 18.3352 39.4898 17.407 37.1614 17.4034ZM37.1307 33.2919C35.7265 33.2919 34.3539 32.8752 33.1867 32.0946C32.0195 31.314 31.1101 30.2046 30.5738 28.9069C30.0375 27.6091 29.8984 26.1814 30.174 24.8045C30.4496 23.4276 31.1276 22.1635 32.1221 21.1722C33.1167 20.1809 34.383 19.507 35.7608 19.2359C37.1385 18.9647 38.5658 19.1085 39.8618 19.649C41.1578 20.1895 42.2643 21.1025 43.0411 22.2722C43.8179 23.442 44.2301 24.816 44.2256 26.2201C44.2195 28.0978 43.4693 29.8965 42.1394 31.2221C40.8095 32.5476 39.0084 33.292 37.1307 33.2919Z" fill="white"/>
</svg>
