<svg width="46" height="52" viewBox="0 0 46 52" fill="none" xmlns="http://www.w3.org/2000/svg">
<path d="M28.8857 25.5181C28.3429 25.1993 27.8021 24.8825 27.2612 24.5522C27.143 24.4879 27.0445 24.3926 26.9764 24.2766C26.9084 24.1605 26.8732 24.028 26.8748 23.8935C26.8801 23.1453 26.831 22.3977 26.728 21.6566C26.7035 21.5103 26.721 21.36 26.7784 21.2232C26.8359 21.0865 26.9309 20.9688 27.0525 20.8839C27.5606 20.4975 28.0648 20.0861 28.5689 19.6881C28.6929 19.6077 28.7845 19.4861 28.8276 19.3447C28.8707 19.2034 28.8625 19.0514 28.8046 18.9155C28.5921 18.3514 28.3738 17.7893 28.1343 17.2349C27.9527 16.8099 27.7344 16.7133 27.2728 16.7616C26.6623 16.8273 26.05 16.8794 25.4666 16.9354C25.3174 16.9507 25.1668 16.9254 25.0308 16.8621C24.8948 16.7989 24.7784 16.7001 24.6939 16.5761C24.2897 15.9957 23.8374 15.4503 23.3417 14.9458C23.2285 14.8365 23.1489 14.6972 23.1123 14.5442C23.0756 14.3912 23.0835 14.231 23.135 14.0823C23.3127 13.4757 23.4827 12.8653 23.6566 12.2568C23.7066 12.1159 23.7064 11.9621 23.6561 11.8213C23.6057 11.6805 23.5083 11.5614 23.3803 11.4841C22.8723 11.1519 22.3565 10.8254 21.835 10.5183C21.7038 10.4197 21.5404 10.3741 21.3772 10.3906C21.214 10.4071 21.0629 10.4844 20.9541 10.6071C20.4673 11.0231 19.9908 11.4429 19.5246 11.8666C19.4082 11.9708 19.2658 12.0416 19.1124 12.0715C18.9591 12.1014 18.8005 12.0894 18.6534 12.0366C17.9793 11.8454 17.307 11.6734 16.6271 11.5189C16.4686 11.4951 16.3196 11.4285 16.1961 11.3264C16.0725 11.2243 15.9791 11.0905 15.9258 10.9394C15.7134 10.3483 15.4931 9.75911 15.2749 9.16994C15.2371 9.02133 15.1469 8.89138 15.0209 8.80405C14.8948 8.71672 14.7415 8.67789 14.5891 8.69473C13.9645 8.72564 13.3418 8.76621 12.7211 8.81643C12.5756 8.82325 12.4369 8.87968 12.3279 8.97633C12.219 9.07298 12.1464 9.20402 12.1223 9.34765C11.9813 9.9658 11.8422 10.582 11.7089 11.2021C11.6789 11.3631 11.6054 11.5127 11.4964 11.635C11.3875 11.7572 11.2472 11.8473 11.0907 11.8956C10.4649 12.1255 9.83706 12.3573 9.2305 12.6335C9.06326 12.7244 8.87315 12.7646 8.68344 12.7491C8.49372 12.7337 8.31261 12.6633 8.16226 12.5466C7.66774 12.1989 7.16163 11.8705 6.65745 11.5363C6.54258 11.4461 6.39957 11.3994 6.25362 11.4044C6.10768 11.4093 5.96816 11.4656 5.85965 11.5633C5.40248 11.9278 4.95174 12.3 4.50745 12.6799C4.13463 13.0005 4.09599 13.2304 4.2911 13.6766C4.53063 14.2252 4.76952 14.7745 5.00776 15.3244C5.07589 15.4637 5.10315 15.6195 5.0864 15.7737C5.06965 15.9279 5.00957 16.0742 4.91311 16.1956C4.48548 16.7599 4.10678 17.3596 3.78112 17.9882C3.71279 18.1239 3.60777 18.2376 3.478 18.3165C3.34823 18.3954 3.19893 18.4362 3.04707 18.4345L1.10376 18.5137C0.963424 18.5129 0.826774 18.5586 0.715008 18.6434C0.603242 18.7283 0.522607 18.8477 0.48561 18.9831C0.323346 19.58 0.168809 20.1788 0.0297247 20.7796C-0.0610661 21.1775 0.0529057 21.3958 0.416069 21.6063C0.95695 21.927 1.49976 22.2457 2.03871 22.5722C2.16863 22.6499 2.27545 22.7608 2.34812 22.8936C2.4208 23.0264 2.45669 23.1762 2.4521 23.3275C2.47721 23.9611 2.4888 24.5966 2.56994 25.2225C2.63561 25.7151 2.52551 26.0725 2.11212 26.3661C1.63692 26.7041 1.18876 27.0808 0.730939 27.4459C0.619368 27.5191 0.535531 27.6276 0.492813 27.754C0.450095 27.8804 0.45096 28.0174 0.495269 28.1433C0.730939 28.7782 0.983994 29.4066 1.25443 30.0286C1.30899 30.1477 1.40165 30.2452 1.51779 30.3057C1.63393 30.3662 1.76693 30.3863 1.89577 30.3628C2.53967 30.3049 3.18036 30.245 3.81783 30.1832C3.9788 30.1605 4.14288 30.185 4.29027 30.2535C4.43766 30.3221 4.56206 30.4318 4.64847 30.5695C5.04563 31.1385 5.49161 31.6717 5.98135 32.1632C6.09306 32.2694 6.17247 32.405 6.21041 32.5543C6.24835 32.7037 6.24327 32.8607 6.19577 33.0074C6.0232 33.6216 5.85064 34.2359 5.67807 34.8502C5.62085 34.9927 5.61667 35.1511 5.6663 35.2964C5.71593 35.4417 5.81607 35.5645 5.94851 35.6422C6.46364 35.9809 6.98198 36.3087 7.50354 36.6255C7.83773 36.8186 8.08306 36.7819 8.38441 36.5211C8.84995 36.1078 9.32129 35.6963 9.78684 35.2829C9.8983 35.1758 10.0379 35.1025 10.1895 35.0717C10.341 35.041 10.4981 35.0539 10.6426 35.1091C11.3114 35.3409 11.9991 35.5142 12.6979 35.6268C12.8466 35.6456 12.9869 35.7059 13.1027 35.8009C13.2186 35.8959 13.3052 36.0217 13.3528 36.1638C13.5788 36.7723 13.801 37.3827 14.0289 37.9893C14.0677 38.1352 14.1573 38.2625 14.2816 38.3482C14.4059 38.4339 14.5567 38.4724 14.7069 38.4567C15.3289 38.4258 15.9529 38.3833 16.573 38.3273C16.7238 38.3217 16.8678 38.2626 16.9793 38.1608C17.0907 38.0589 17.1623 37.9207 17.1815 37.771C17.3218 37.1554 17.4603 36.5379 17.5968 35.9185C17.6229 35.7633 17.693 35.6189 17.7988 35.5025C17.9047 35.386 18.0417 35.3024 18.1937 35.2617C18.8668 35.0575 19.521 34.7951 20.1486 34.4774C20.2861 34.4016 20.4425 34.3671 20.5991 34.3781C20.7557 34.389 20.9058 34.445 21.0314 34.5392C21.5491 34.8888 22.0687 35.2327 22.5883 35.5785C22.9167 35.7987 23.1679 35.8025 23.4731 35.5592C23.9457 35.1728 24.4119 34.7813 24.8716 34.3847C24.9947 34.293 25.08 34.1597 25.1117 34.0096C25.1433 33.8595 25.1191 33.703 25.0436 33.5695C24.8002 33.0016 24.5587 32.4317 24.3056 31.8657C24.2309 31.7111 24.201 31.5386 24.2195 31.3678C24.2379 31.1971 24.3039 31.0349 24.4099 30.8998C24.7847 30.3474 25.144 29.7833 25.4801 29.2077C25.5571 29.0496 25.6772 28.9166 25.8266 28.8239C25.976 28.7313 26.1485 28.6828 26.3243 28.6842C26.9444 28.6706 27.5625 28.6417 28.1807 28.6166C28.3288 28.6202 28.4737 28.5728 28.5911 28.4825C28.7085 28.3921 28.7914 28.2642 28.8259 28.1201C28.9843 27.5406 29.1369 26.9611 29.274 26.3661C29.3764 25.9682 29.2489 25.7306 28.8857 25.5181ZM14.45 33.5656C12.4719 33.5258 10.5501 32.8999 8.92787 31.7673C7.30562 30.6348 6.05584 29.0464 5.33673 27.2032C4.61762 25.36 4.4615 23.3449 4.88814 21.413C5.31478 19.481 6.30499 17.7191 7.73344 16.3502C9.1619 14.9813 10.9644 14.0669 12.9127 13.7228C14.8611 13.3788 16.8677 13.6205 18.6786 14.4174C20.4895 15.2142 22.0233 16.5304 23.0858 18.1994C24.1484 19.8684 24.6919 21.8151 24.6476 23.7931C24.5847 26.4391 23.4766 28.9526 21.5657 30.7839C19.6547 32.6153 17.0963 33.6154 14.45 33.5656Z" fill="white"/>
<path d="M45.9892 31.122C45.9323 29.8327 45.3899 28.6126 44.4708 27.7067C43.6781 26.8918 42.6418 26.3568 41.5184 26.1826C40.3949 26.0083 39.2453 26.2043 38.243 26.7409C36.4175 27.7067 35.4864 29.2791 35.3917 31.3422C35.3935 31.3875 35.3824 31.4323 35.3599 31.4716C35.3373 31.5109 35.3042 31.543 35.2642 31.5644C33.1922 32.8818 31.1214 34.2018 29.0518 35.5244L24.3288 38.5243C23.0577 39.3382 21.7783 40.1534 20.4905 40.9699C20.4486 41.0017 20.3985 41.0207 20.3461 41.0249C20.2937 41.029 20.2412 41.0179 20.1949 40.9931C19.4315 40.6592 18.6002 40.5097 17.7683 40.5568C16.9364 40.6039 16.1273 40.8463 15.4065 41.2642C14.6857 41.6822 14.0735 42.264 13.6193 42.9626C13.1652 43.6612 12.882 44.4569 12.7926 45.2854C12.7655 45.5172 12.7674 45.7528 12.7559 46.0136C12.8351 45.9653 12.8776 45.9402 12.9181 45.9132C13.8086 45.3472 14.6992 44.785 15.5839 44.2113C15.6511 44.1609 15.7302 44.1288 15.8136 44.1183C15.8969 44.1078 15.9815 44.1192 16.0591 44.1514C17.025 44.4972 18.014 44.8237 18.9934 45.1559C19.061 45.1791 19.117 45.1907 19.1054 45.2931C18.9857 46.3768 18.8717 47.4585 18.7481 48.5422C18.7369 48.6191 18.696 48.6885 18.6341 48.7354C18.325 48.9421 18.0082 49.1372 17.6953 49.3362L15.6959 50.6111C15.752 50.642 15.7867 50.6613 15.8215 50.6768C16.7846 51.1255 17.8602 51.2749 18.9091 51.1059C19.9581 50.9368 20.9322 50.4569 21.7055 49.7283C22.2226 49.248 22.6372 48.6681 22.9243 48.0234C23.2115 47.3787 23.3653 46.6826 23.3765 45.9769C23.3747 45.922 23.3886 45.8677 23.4167 45.8205C23.4448 45.7732 23.4858 45.735 23.5349 45.7103C25.4962 44.465 27.455 43.2178 29.4111 41.9686C32.3731 40.0832 35.3351 38.196 38.297 36.3067C38.3334 36.2789 38.377 36.2623 38.4226 36.2589C38.4683 36.2554 38.5139 36.2653 38.554 36.2874C39.6451 36.7812 40.8732 36.8836 42.0311 36.5772C43.2228 36.2711 44.2704 35.5586 44.993 34.5627C45.7155 33.5668 46.0679 32.3499 45.9892 31.122ZM43.2596 32.6674C42.6878 33.2005 42.1135 33.7317 41.5365 34.261C41.5034 34.2863 41.467 34.3071 41.4284 34.3229L39.7053 34.0601C39.4909 34.0273 39.2745 33.9983 39.062 33.9578C38.9984 33.9444 38.9424 33.907 38.9055 33.8534C38.5192 33.1876 38.1328 32.5186 37.7465 31.8464C37.7119 31.7804 37.7043 31.7035 37.7253 31.632C38.0034 30.9121 38.2874 30.1941 38.5771 29.4781C38.6065 29.4151 38.6591 29.3659 38.724 29.341C39.4657 29.1079 40.2088 28.8806 40.9532 28.6591C41.0122 28.6447 41.0745 28.6537 41.127 28.6842C41.7799 29.1246 42.429 29.5708 43.0781 30.0171C43.1179 30.0495 43.1441 30.0957 43.1515 30.1465C43.2133 30.9359 43.2712 31.726 43.3253 32.5167C43.3255 32.5722 43.304 32.6256 43.2654 32.6654L43.2596 32.6674Z" fill="white"/>
<path d="M39.402 19.5027C39.3189 19.8582 39.2301 20.2136 39.1316 20.5671C39.1142 20.6612 39.0625 20.7455 38.9864 20.8037C38.9104 20.8619 38.8155 20.8898 38.7201 20.882C38.3338 20.8993 37.9474 20.9167 37.5611 20.9303C37.4668 20.9302 37.3742 20.9555 37.293 21.0034C37.2118 21.0513 37.145 21.1201 37.0994 21.2026C36.8676 21.589 36.628 21.9579 36.3885 22.3327C36.3366 22.4057 36.3047 22.491 36.2962 22.5802C36.2878 22.6694 36.3029 22.7593 36.3402 22.8407C36.487 23.1865 36.6377 23.5303 36.7865 23.8761C36.817 23.922 36.838 23.9735 36.8484 24.0277C36.8588 24.0818 36.8583 24.1374 36.847 24.1914C36.8357 24.2453 36.8137 24.2965 36.7825 24.3418C36.7512 24.3872 36.7111 24.4259 36.6648 24.4556C36.3879 24.6952 36.1058 24.9283 35.8187 25.1549C35.7506 25.2144 35.6638 25.2481 35.5735 25.2502C35.4831 25.2524 35.3949 25.2227 35.3241 25.1665L34.3486 24.5155C34.2693 24.4598 34.1763 24.4268 34.0797 24.42C33.983 24.4132 33.8863 24.4329 33.8 24.4769C33.4137 24.6411 33.0157 24.8014 32.6178 24.9502C32.5205 24.9798 32.4332 25.0354 32.3651 25.111C32.2971 25.1865 32.2509 25.2792 32.2315 25.379C32.1529 25.7473 32.0705 26.1143 31.9842 26.4801C31.9754 26.5807 31.9289 26.6742 31.854 26.7419C31.7792 26.8097 31.6814 26.8465 31.5805 26.8452C31.225 26.8761 30.8696 26.9012 30.5142 26.9147C30.4611 26.9251 30.4066 26.9248 30.3536 26.914C30.3007 26.9032 30.2504 26.882 30.2057 26.8516C30.161 26.8213 30.1227 26.7824 30.0931 26.7372C30.0635 26.692 30.0431 26.6414 30.0332 26.5883C29.9095 26.2541 29.782 25.9218 29.6661 25.5857C29.6372 25.4749 29.5747 25.3757 29.4872 25.3017C29.3997 25.2277 29.2915 25.1825 29.1774 25.1723C29.0209 25.1511 28.8664 25.1086 28.7099 25.0815C28.1594 24.9869 27.7325 24.643 27.2727 24.3668C27.1963 24.3183 27.1334 24.2512 27.0898 24.1718C27.0462 24.0925 27.0234 24.0034 27.0235 23.9128C27.0235 23.5786 27.0235 23.2425 27.0235 22.9025C28.9128 24.0616 30.887 24.2779 32.9423 23.3797C33.6729 23.0692 34.3327 22.6135 34.882 22.0404C35.4312 21.4673 35.8583 20.7886 36.1374 20.0455C36.7346 18.5508 36.7182 16.8808 36.0918 15.3981C35.4655 13.9153 34.2796 12.7394 32.7917 12.1255C31.9974 11.7812 31.1375 11.6149 30.2722 11.6383C29.4069 11.6616 28.5572 11.8741 27.7827 12.2607C26.1427 13.0488 25.0783 14.3528 24.5297 16.0836C24.1163 15.6122 23.7087 15.1467 23.2876 14.6696C23.3748 14.6557 23.4594 14.629 23.5387 14.5904C23.6329 14.521 23.7146 14.4361 23.7802 14.3392C24.0081 13.9915 24.2187 13.6322 24.4505 13.2864C24.5129 13.2048 24.5518 13.1077 24.563 13.0056C24.5743 12.9034 24.5574 12.8002 24.5142 12.7069C24.3616 12.3592 24.209 12.0096 24.0603 11.658C24.0123 11.5746 23.9973 11.4763 24.018 11.3823C24.0387 11.2883 24.0937 11.2055 24.1723 11.15C24.4544 10.9066 24.7383 10.669 25.0281 10.4372C25.0981 10.3674 25.1922 10.3271 25.291 10.3246C25.3898 10.322 25.4858 10.3575 25.5593 10.4236C25.8761 10.6361 26.1948 10.8467 26.5097 11.0611C26.5912 11.1178 26.6864 11.1513 26.7854 11.1581C26.8844 11.1649 26.9834 11.1447 27.0718 11.0997C27.4582 10.9336 27.8529 10.7759 28.256 10.6265C28.3509 10.5979 28.4361 10.5439 28.5025 10.4704C28.5689 10.3968 28.6139 10.3065 28.6327 10.2092C28.7099 9.85184 28.7911 9.49448 28.8703 9.13711C28.8768 9.02334 28.9279 8.91672 29.0125 8.8404C29.0971 8.76409 29.2085 8.72424 29.3223 8.72952C29.6777 8.70054 30.0332 8.67929 30.3905 8.66577C30.4877 8.65191 30.5865 8.67554 30.6668 8.73187C30.7472 8.78819 30.8031 8.87299 30.8232 8.96905C30.9546 9.32255 31.0859 9.67413 31.2096 10.0276C31.2405 10.1244 31.2977 10.2107 31.3748 10.2768C31.4519 10.343 31.5458 10.3865 31.6461 10.4024C32.0595 10.4951 32.471 10.5956 32.8805 10.7153C32.9746 10.7478 33.0758 10.7541 33.1731 10.7333C33.2705 10.7125 33.3604 10.6656 33.433 10.5975C33.7131 10.3464 33.997 10.0991 34.2791 9.85185C34.344 9.77416 34.436 9.72412 34.5365 9.71192C34.637 9.69972 34.7384 9.72627 34.82 9.78617C35.129 9.97934 35.4362 10.1725 35.7375 10.3657C35.8331 10.4121 35.9068 10.494 35.9429 10.594C35.979 10.6939 35.9746 10.804 35.9307 10.9008C35.8302 11.2581 35.7375 11.6155 35.6255 11.9709C35.592 12.0712 35.5877 12.1788 35.613 12.2814C35.6383 12.384 35.6922 12.4773 35.7684 12.5505C36.0447 12.8595 36.3112 13.1802 36.5682 13.5163C36.6297 13.5968 36.7121 13.659 36.8064 13.6961C36.9007 13.7332 37.0033 13.7438 37.1033 13.7269C37.4664 13.6863 37.8315 13.6535 38.1966 13.6226C38.3021 13.596 38.4138 13.6118 38.5077 13.6667C38.6016 13.7216 38.6703 13.8112 38.6989 13.9162C38.8405 14.2484 38.9738 14.5839 39.0987 14.9226C39.1406 15.0091 39.1487 15.108 39.1216 15.2002C39.0945 15.2923 39.034 15.371 38.9519 15.421C38.6506 15.6631 38.3473 15.902 38.0421 16.1377C37.9648 16.1957 37.9046 16.2736 37.8679 16.363C37.8312 16.4524 37.8193 16.5501 37.8334 16.6457C37.8682 17.0803 37.8933 17.513 37.9165 17.9477C37.9164 18.0422 37.9415 18.1351 37.9894 18.2167C38.0373 18.2982 38.1062 18.3654 38.1889 18.4113C38.5224 18.6045 38.8547 18.8015 39.1856 19.0024C39.2805 19.0403 39.3566 19.1141 39.3971 19.2079C39.4376 19.3017 39.4394 19.4077 39.402 19.5027Z" fill="white"/>
<path d="M30.3539 8.10364C30.3249 8.24852 30.3288 8.43783 30.238 8.52283C30.1472 8.60782 29.9675 8.5576 29.8246 8.57112C29.6314 8.5885 29.4383 8.60589 29.2335 8.631C29.1381 8.6342 29.0462 8.6675 28.9709 8.72614C28.8956 8.78479 28.8408 8.86576 28.8143 8.95746C28.6995 9.27709 28.5422 9.57985 28.3468 9.85764C28.2934 9.94715 28.234 10.033 28.1691 10.1146C28.1122 10.1708 28.0722 10.2419 28.0538 10.3198C28.0353 10.3977 28.0392 10.4792 28.0648 10.555C27.7982 10.6651 27.5355 10.7636 27.2805 10.8795C26.7821 11.1036 26.8324 11.1596 26.305 10.7926L26.1273 10.6709C27.4119 9.7881 28.1459 8.59237 28.2348 7.03927C28.2762 6.43827 28.193 5.8352 27.9906 5.26781C27.7882 4.70042 27.4708 4.18092 27.0584 3.74182C26.6322 3.26828 26.112 2.88887 25.5308 2.62788C24.9497 2.36689 24.3205 2.23005 23.6835 2.22612C23.0464 2.22219 22.4156 2.35125 21.8313 2.60505C21.247 2.85885 20.7221 3.2318 20.2901 3.70005C19.8582 4.1683 19.5287 4.72155 19.3228 5.3244C19.1169 5.92725 19.0391 6.56644 19.0943 7.20109C19.1495 7.83574 19.3366 8.45188 19.6435 9.01011C19.9505 9.56833 20.3705 10.0563 20.8769 10.443L19.7024 11.4803L19.7951 11.148C19.8177 11.0718 19.819 10.9908 19.7989 10.9139C19.7788 10.8369 19.7381 10.767 19.6811 10.7115C19.488 10.4893 19.2948 10.2556 19.1016 10.018C19.059 9.95044 18.998 9.89642 18.9259 9.86222C18.8537 9.82802 18.7733 9.81504 18.694 9.82481C18.412 9.85571 18.1319 9.87696 17.8499 9.90401C17.7803 9.9164 17.7086 9.90381 17.6475 9.86846C17.5863 9.83311 17.5397 9.77728 17.5157 9.71083C17.4094 9.45585 17.3032 9.19893 17.2085 8.93815C17.1727 8.86847 17.166 8.78741 17.1899 8.71278C17.2138 8.63816 17.2664 8.57609 17.336 8.54021L17.9793 8.04376C18.0437 7.99799 18.0938 7.93478 18.1236 7.86155C18.1533 7.78833 18.1616 7.70813 18.1474 7.63037C18.1145 7.32516 18.0933 7.01802 18.0836 6.71281C18.0847 6.63275 18.0632 6.55401 18.0215 6.48566C17.9798 6.4173 17.9196 6.36212 17.8479 6.32646C17.6103 6.19124 17.3805 6.04829 17.1448 5.91114C17.0785 5.88071 17.0253 5.82755 16.9948 5.76129C16.9644 5.69503 16.9586 5.62004 16.9787 5.54991C17.0443 5.27174 17.1139 4.99164 17.1912 4.71734C17.2099 4.65198 17.2503 4.59495 17.3058 4.55563C17.3613 4.5163 17.4285 4.49704 17.4964 4.50099C17.7687 4.50099 18.0411 4.47781 18.3135 4.47201C18.3977 4.47396 18.4807 4.45193 18.5529 4.4085C18.625 4.36506 18.6834 4.30201 18.7211 4.22668C18.8737 3.96204 19.0417 3.70512 19.2117 3.454C19.2569 3.39461 19.2851 3.32416 19.2936 3.25006C19.3021 3.17596 19.2905 3.10094 19.26 3.03288C19.1461 2.77017 19.0321 2.50552 18.9162 2.24281C18.8837 2.18365 18.8728 2.115 18.8855 2.04869C18.8982 1.98239 18.9336 1.9226 18.9857 1.87964C19.2059 1.68647 19.43 1.49845 19.658 1.31558C19.7102 1.27257 19.7757 1.24904 19.8434 1.24904C19.9111 1.24904 19.9766 1.27257 20.0288 1.31558C20.2645 1.47205 20.5002 1.62852 20.732 1.78692C20.7968 1.8325 20.8729 1.85932 20.952 1.86443C21.0311 1.86954 21.11 1.85275 21.1802 1.8159C21.4564 1.6942 21.7365 1.58023 22.0205 1.47978C22.0993 1.45858 22.1704 1.41533 22.2255 1.35511C22.2806 1.29488 22.3173 1.22019 22.3315 1.1398C22.3855 0.873218 22.4532 0.608573 22.5072 0.341996C22.5124 0.264506 22.5461 0.191662 22.6017 0.137464C22.6573 0.083266 22.731 0.0515368 22.8086 0.0483743C23.1003 0.0251936 23.3881 0.00973989 23.6837 8.12889e-05C23.7494 -0.00149131 23.8136 0.0197953 23.8654 0.0603086C23.9172 0.100822 23.9533 0.158051 23.9676 0.222229C24.0603 0.477216 24.1608 0.732203 24.2477 0.994917C24.2715 1.07571 24.3184 1.14781 24.3825 1.20237C24.4467 1.25693 24.5254 1.29158 24.609 1.30206C24.8987 1.36001 25.1885 1.43728 25.4705 1.52034C25.549 1.55096 25.6346 1.55831 25.7172 1.54152C25.7998 1.52474 25.8757 1.48452 25.936 1.42569C26.1292 1.24411 26.3359 1.07025 26.5368 0.894468C26.5878 0.831789 26.6616 0.79191 26.742 0.783581C26.8224 0.775252 26.9029 0.799152 26.9657 0.850038C27.1955 0.98719 27.4196 1.13014 27.6437 1.27695C27.7076 1.3122 27.7566 1.3693 27.7818 1.43778C27.807 1.50626 27.8066 1.58152 27.7808 1.64977C27.7036 1.91442 27.634 2.18292 27.5548 2.4495C27.5284 2.52952 27.5252 2.61542 27.5457 2.69717C27.5663 2.77892 27.6096 2.85315 27.6707 2.91118C27.8639 3.1256 28.0571 3.34968 28.2309 3.58342C28.279 3.65497 28.3466 3.71121 28.4257 3.74545C28.5048 3.77969 28.5921 3.7905 28.6772 3.77659C28.9321 3.74762 29.1891 3.72444 29.4498 3.69932C29.492 3.68742 29.536 3.68411 29.5795 3.68959C29.6229 3.69506 29.6648 3.70921 29.7026 3.7312C29.7405 3.75319 29.7735 3.78256 29.7998 3.81757C29.826 3.85258 29.845 3.89251 29.8555 3.93499C29.956 4.17259 30.0487 4.4102 30.1395 4.65166C30.1762 4.72127 30.1842 4.80247 30.1618 4.87792C30.1394 4.95336 30.0884 5.01706 30.0197 5.05539C29.8053 5.22538 29.5928 5.39344 29.3764 5.55957C29.3137 5.60401 29.2644 5.66476 29.2337 5.73525C29.2031 5.80574 29.1923 5.88326 29.2026 5.95943C29.2277 6.28396 29.247 6.61042 29.2644 6.93688C29.2657 7.00651 29.2857 7.0745 29.3224 7.13367C29.3592 7.19284 29.4112 7.24098 29.473 7.273C29.7087 7.41016 29.9424 7.54924 30.1762 7.69026C30.2545 7.72163 30.3171 7.78275 30.3504 7.86023C30.3837 7.93772 30.385 8.02524 30.3539 8.10364Z" fill="white"/>
<path d="M32.952 22.974C30.9102 23.9244 28.9437 23.7467 27.0776 22.4834C27.0417 22.4628 27.0116 22.4334 26.9903 22.3979C26.9689 22.3624 26.9571 22.3219 26.9559 22.2805C26.9405 22.0874 26.9077 21.8942 26.8806 21.701C26.8534 21.5782 26.8623 21.4502 26.9062 21.3323C26.95 21.2144 27.027 21.1117 27.1279 21.0365C27.4988 21.2954 27.8349 21.5793 28.2116 21.7899C29.0453 22.2526 30.0025 22.444 30.95 22.3375C31.8976 22.231 32.7884 21.832 33.4987 21.1958C34.2089 20.5597 34.7033 19.718 34.9131 18.7879C35.123 17.8577 35.0377 16.8853 34.6694 16.0058C34.301 15.1264 33.6677 14.3835 32.8576 13.8806C32.0475 13.3777 31.1008 13.1396 30.1492 13.1996C29.1976 13.2596 28.2883 13.6146 27.5478 14.2152C26.8072 14.8158 26.2722 15.6323 26.0171 16.5511C25.9727 16.7114 25.9051 16.7693 25.7486 16.7674C25.6308 16.7674 25.511 16.7983 25.3932 16.7906C25.2755 16.7856 25.1597 16.7594 25.0513 16.7133C24.8272 16.6071 24.7866 16.5202 24.8581 16.2787C25.567 13.9896 27.0796 12.5408 29.4401 12.1062C30.8102 11.8638 32.2216 12.1253 33.4139 12.8425C34.6062 13.5596 35.4987 14.6839 35.9267 16.0077C36.3548 17.3315 36.2893 18.7655 35.7426 20.0449C35.1958 21.3243 34.2046 22.3626 32.952 22.9682V22.974Z" fill="white"/>
<path d="M27.8852 5.92658C27.6807 4.96301 27.1549 4.09752 26.394 3.47206C25.633 2.84659 24.6821 2.49828 23.6972 2.48425C23.4615 2.50743 23.222 2.51709 22.9882 2.55573C22.7491 2.59474 22.5134 2.65222 22.2832 2.72765C21.3763 3.03722 20.5987 3.64073 20.0738 4.44245C19.5489 5.24417 19.3067 6.1982 19.3856 7.15322C19.43 7.7503 19.6008 8.33114 19.8865 8.85729C20.1722 9.38345 20.5664 9.84293 21.043 10.2053C21.1047 10.2471 21.1798 10.2643 21.2536 10.2536C21.4552 10.213 21.6647 10.2473 21.8427 10.3502C22.1199 10.493 22.3883 10.6524 22.6463 10.8273C22.9163 11.0264 23.2462 11.1272 23.5813 11.1132C23.6895 11.1132 23.7976 11.0978 23.9077 11.1132C23.9614 11.1133 24.0146 11.1026 24.064 11.0817C24.1135 11.0608 24.1582 11.0301 24.1956 10.9915C24.4486 10.7713 24.7055 10.5511 24.9683 10.3541C25.0748 10.2764 25.2057 10.2394 25.3372 10.2498C25.485 10.2851 25.6239 10.3509 25.7448 10.4429C25.7786 10.4689 25.82 10.483 25.8626 10.483C25.9053 10.483 25.9467 10.4689 25.9805 10.4429C26.7188 9.97237 27.2964 9.28829 27.6366 8.48158C27.9769 7.67487 28.0635 6.78373 27.8852 5.92658ZM23.6798 10.2285C23.0093 10.2308 22.353 10.0361 21.7923 9.66851C21.2316 9.30092 20.7912 8.77667 20.526 8.1609C20.2607 7.54514 20.1823 6.865 20.3003 6.20502C20.4184 5.54503 20.7278 4.93428 21.1901 4.44867C21.6523 3.96305 22.2471 3.62398 22.9005 3.47357C23.5539 3.32317 24.237 3.36807 24.8651 3.6027C25.4932 3.83733 26.0385 4.25133 26.4332 4.79328C26.828 5.33522 27.0548 5.98121 27.0854 6.65097C27.1038 7.11126 27.0296 7.57056 26.8671 8.00162C26.7046 8.43269 26.4573 8.82673 26.1396 9.16038C25.822 9.49404 25.4406 9.76051 25.0181 9.94399C24.5955 10.1275 24.1404 10.2242 23.6798 10.2285Z" fill="white"/>
<path d="M24.3733 13.2188C24.3346 13.271 24.2979 13.3232 24.2574 13.3734C24.1956 13.4545 24.1415 13.5781 24.0642 13.5994C23.9148 13.63 23.7612 13.6346 23.6102 13.6129C23.4924 13.6013 23.4345 13.5395 23.4808 13.3966C23.5832 13.0778 23.6566 12.7475 23.759 12.4307C23.8344 12.252 23.8486 12.0533 23.7994 11.8657C23.7501 11.678 23.6401 11.512 23.4866 11.3934H23.8614C23.958 11.6406 24.043 11.8705 24.1376 12.0965C24.2323 12.3225 24.3308 12.5408 24.4254 12.761C24.4622 12.8342 24.4768 12.9164 24.4675 12.9977C24.4583 13.079 24.4255 13.1559 24.3733 13.2188Z" fill="white"/>
<path d="M14.676 14.1577C12.8145 14.1527 10.9933 14.6998 9.44268 15.7297C7.89206 16.7597 6.68162 18.2263 5.96441 19.9441C5.24719 21.6619 5.05539 23.5538 5.41327 25.3806C5.77114 27.2074 6.66262 28.887 7.97499 30.2072C9.28736 31.5274 10.9617 32.4289 12.7863 32.7976C14.611 33.1664 16.504 32.9858 18.226 32.2789C19.948 31.5719 21.4218 30.3702 22.461 28.8257C23.5001 27.2812 24.058 25.4633 24.0642 23.6018C24.0693 21.1052 23.0836 18.7085 21.3235 16.9379C19.5634 15.1673 17.1726 14.1674 14.676 14.1577ZM14.6219 31.0428C13.6389 31.0393 12.6662 30.8418 11.7597 30.4617C10.8531 30.0816 10.0304 29.5263 9.33885 28.8277C8.64725 28.1291 8.1003 27.3009 7.72934 26.3906C7.35839 25.4802 7.17071 24.5056 7.17707 23.5226C7.17707 19.4177 10.546 16.0932 14.7108 16.0952C16.693 16.1059 18.5897 16.9037 19.9837 18.3129C21.3777 19.7221 22.1548 21.6274 22.144 23.6096C22.1333 25.5917 21.3355 27.4885 19.9263 28.8825C18.5171 30.2765 16.6118 31.0536 14.6296 31.0428H14.6219Z" fill="white"/>
</svg>
