<svg width="52" height="52" viewBox="0 0 52 52" fill="none" xmlns="http://www.w3.org/2000/svg">
<path d="M10.4626 40.4453C10.545 40.4708 10.6275 40.4963 10.708 40.5257C10.6275 40.4963 10.545 40.4688 10.4626 40.4453ZM11.9878 34.0913C12.0055 34.0716 12.0113 34.0461 11.9878 34.0913V34.0913ZM11.9878 34.0913C12.0055 34.0716 12.0113 34.0461 11.9878 34.0913V34.0913Z" fill="white"/>
<path d="M51.9215 24.049C51.5587 19.0915 49.7669 14.3454 46.7629 10.3851C46.5097 10.0455 46.4606 9.81385 46.6648 9.41734C47.0775 8.59017 47.2093 7.65096 47.0402 6.74212C46.871 5.83328 46.4101 5.00439 45.7274 4.38112C45.0446 3.75786 44.1773 3.37422 43.2568 3.28838C42.3364 3.20254 41.413 3.41918 40.6268 3.90546C39.842 4.38726 39.2344 5.1102 38.8947 5.96613C38.555 6.82205 38.5016 7.76495 38.7424 8.65377C38.9786 9.55439 39.5079 10.3508 40.2469 10.9173C40.9858 11.4838 41.8922 11.7883 42.8233 11.7827C43.53 11.7689 44.2327 11.5432 44.9943 11.4038C45.0316 11.4529 45.1278 11.5707 45.2142 11.6943C50.3393 18.9571 51.4091 26.7814 48.1723 35.0747C44.7352 43.8745 35.849 49.9242 26.3936 49.9596C24.7114 49.9596 23.0272 49.6985 21.347 49.5297C20.6933 49.4649 20.1908 49.7476 20.0868 50.3247C19.9827 50.9018 20.3125 51.3729 20.9681 51.522C21.135 51.5593 21.2999 51.5927 21.4667 51.6163C22.4344 51.7517 23.4041 51.8832 24.3738 52.0089H27.6224C28.5921 51.8773 29.5638 51.7654 30.5276 51.6163C40.6759 49.9694 49.299 41.7192 51.3797 31.6416C51.627 30.452 51.7389 29.235 51.9156 28.0337C51.9332 27.9002 51.9705 27.7707 52 27.6411V24.5004C51.9648 24.3517 51.9385 24.2009 51.9215 24.049ZM42.8704 9.71963C42.2904 9.70809 41.7374 9.47255 41.3273 9.06236C40.9171 8.65218 40.6815 8.09917 40.67 7.5192C40.6846 6.95068 40.9201 6.4102 41.3265 6.01243C41.733 5.61466 42.2784 5.39089 42.8471 5.38859C43.4158 5.3863 43.9631 5.60565 44.3727 6.00012C44.7824 6.39459 45.0222 6.93315 45.0414 7.50153C45.0807 8.66162 44.06 9.71963 42.8704 9.72945V9.71963Z" fill="white"/>
<path d="M44.4859 22.9242C44.4859 22.2176 44.0933 21.8466 43.3729 21.8328C42.8665 21.823 42.3561 21.8544 41.8517 21.8171C41.7646 21.8002 41.6826 21.7639 41.6115 21.7109C41.5405 21.6579 41.4823 21.5895 41.4414 21.5109C40.9755 20.4457 40.53 19.3707 40.1047 18.2858C40.0794 18.2028 40.0729 18.1152 40.0854 18.0294C40.098 17.9435 40.1293 17.8615 40.1773 17.7892C40.4835 17.428 40.8388 17.112 41.1705 16.7724C41.7594 16.1835 41.7594 15.6418 41.1823 15.0568C39.7729 13.6422 38.3596 12.2309 36.9424 10.8228C36.3712 10.2555 35.8353 10.2555 35.27 10.8228C34.8519 11.2409 34.4593 11.6806 34.155 12.0005C32.8222 11.4863 31.6248 11.0348 30.4373 10.5539C30.3691 10.5074 30.3121 10.4463 30.2707 10.375C30.2292 10.3036 30.2043 10.2239 30.1978 10.1417C30.1683 9.65092 30.1978 9.16019 30.184 8.66946C30.1723 7.91962 29.8013 7.53489 29.0632 7.53293C27.0139 7.52508 24.9659 7.52508 22.9193 7.53293C22.2107 7.53293 21.8357 7.92551 21.824 8.64394C21.8141 9.13467 21.8122 9.6254 21.824 10.1161C21.8421 10.2215 21.819 10.3299 21.7595 10.4187C21.6999 10.5075 21.6084 10.57 21.504 10.5931C20.4185 11.0132 19.3448 11.4823 18.2711 11.9102C18.1872 11.9338 18.0992 11.9384 18.0133 11.9238C17.9274 11.9092 17.8458 11.8758 17.7745 11.8258C17.4015 11.5078 17.0737 11.1388 16.7223 10.7973C16.1649 10.2594 15.6329 10.2535 15.0813 10.7973C13.6523 12.221 12.2279 13.6481 10.808 15.0784C10.2466 15.6418 10.2545 16.1796 10.8198 16.7528C11.236 17.1787 11.6717 17.5713 12.0486 17.9443C11.6756 18.7667 11.3282 19.4989 11.0122 20.2429C10.7943 20.7513 10.7649 21.4952 10.3939 21.7406C9.9895 22.0095 9.28481 21.821 8.71164 21.8309C7.8931 21.8446 7.5221 22.1979 7.52014 23.0086C7.52014 25.0226 7.52014 27.0365 7.52014 29.0505C7.52014 29.82 7.90095 30.191 8.68219 30.2027C9.17292 30.2027 9.66365 30.1851 10.1544 30.2165C10.2348 30.226 10.3119 30.2538 10.38 30.2977C10.448 30.3416 10.5051 30.4004 10.547 30.4697C11.0279 31.6474 11.4833 32.8468 11.9721 34.107C11.5795 34.4996 11.1869 34.8922 10.7943 35.2847C10.2349 35.8579 10.229 36.3859 10.7943 36.9591C12.1997 38.3763 13.6111 39.789 15.0283 41.1971C15.6172 41.7859 16.1492 41.7742 16.742 41.1833C17.1581 40.7672 17.5526 40.3314 17.8569 40.0056C19.1563 40.514 20.3125 40.987 21.4824 41.4149C21.5878 41.435 21.6811 41.4956 21.7424 41.5836C21.8037 41.6717 21.828 41.7803 21.8102 41.886C21.7984 42.3944 21.7984 42.9009 21.8102 43.4093C21.8259 44.0943 22.2028 44.4908 22.88 44.4948C24.945 44.5052 27.01 44.5052 29.075 44.4948C29.7797 44.4948 30.1566 44.1022 30.1703 43.3818C30.1801 42.8754 30.1546 42.367 30.184 41.8605C30.1922 41.7786 30.2188 41.6996 30.262 41.6296C30.3052 41.5595 30.3638 41.5002 30.4333 41.4562C31.6111 40.9752 32.8144 40.5218 34.1452 40.0056C34.4495 40.3334 34.8421 40.777 35.2582 41.1951C35.8255 41.7643 36.3692 41.7683 36.9326 41.2088C38.3498 39.8008 39.7625 38.3888 41.1705 36.9728C41.7594 36.384 41.7594 35.8481 41.1705 35.2592C40.7544 34.8431 40.3206 34.4426 39.9928 34.1325C40.5012 32.8291 40.9526 31.6494 41.4316 30.4775C41.4701 30.4055 41.5247 30.3433 41.591 30.2956C41.6574 30.248 41.7338 30.2162 41.8144 30.2027C42.3365 30.1713 42.8626 30.2027 43.3847 30.187C44.0658 30.1694 44.4643 29.7944 44.4682 29.1113C44.4905 27.0516 44.4964 24.9892 44.4859 22.9242ZM11.9878 34.0913C12.0054 34.0716 12.0113 34.0461 11.9878 34.0913V34.0913ZM42.4131 28.1554H40.9605C40.1596 28.1554 39.8456 28.3831 39.665 29.1467C39.2963 30.6953 38.6784 32.1736 37.8355 33.524C37.4881 34.0834 37.5411 34.5055 38.0122 34.9824C38.3832 35.3515 38.7836 35.6891 39.1507 36.0228L36.01 39.1635C35.6842 38.8043 35.3485 38.4038 34.9795 38.0368C34.4829 37.5441 34.0765 37.5009 33.4759 37.8758C32.1395 38.7091 30.6753 39.3172 29.1417 39.6758C28.3762 39.8583 28.1387 40.1783 28.1348 40.9674C28.1348 41.4405 28.1348 41.9135 28.1348 42.4258H23.8654C23.8654 41.943 23.8654 41.4601 23.8654 40.9752C23.8654 40.1901 23.6181 39.8446 22.8682 39.6719C21.3375 39.3151 19.8759 38.709 18.542 37.8778C17.9158 37.4852 17.5271 37.546 16.9991 38.0623C16.6595 38.392 16.3258 38.7277 15.9882 39.0594C15.9724 39.0744 15.9526 39.0846 15.9313 39.0889L12.8259 36.0228C13.1969 35.693 13.5875 35.3731 13.9468 35.0197C14.465 34.5094 14.518 34.0893 14.143 33.4808C13.3115 32.1447 12.701 30.6832 12.3352 29.1526C12.1546 28.389 11.8405 28.1593 11.0436 28.1574H9.59299V23.8782C10.0759 23.8782 10.545 23.8782 11.0141 23.8782C11.8386 23.8782 12.1526 23.6407 12.3411 22.8516C12.7004 21.3356 13.303 19.8878 14.1254 18.5646C14.518 17.9266 14.4689 17.5164 13.9291 16.9805C13.5836 16.635 13.2146 16.3111 12.8828 15.999L16.0235 12.8583C16.3415 13.2195 16.6693 13.6258 17.0305 13.9949C17.4918 14.466 17.9354 14.5209 18.4909 14.1755C19.8573 13.3253 21.353 12.7034 22.9193 12.3342C23.6122 12.1674 23.8595 11.8298 23.8674 11.0996C23.8674 10.6128 23.8674 10.1181 23.8674 9.6097H28.1406V10.9975C28.1406 11.8612 28.3664 12.1536 29.1889 12.3558C30.6879 12.7131 32.1195 13.3097 33.4288 14.1225C34.0883 14.5366 34.4946 14.4836 35.0521 13.9262C35.3858 13.5905 35.6999 13.2372 35.9923 12.9251L39.0879 16.0402C38.7817 16.3229 38.3989 16.6586 38.0397 17.0217C37.545 17.5164 37.4881 17.9345 37.8552 18.5214C38.696 19.8726 39.3112 21.3517 39.6767 22.9007C39.8514 23.6289 40.1793 23.8723 40.9389 23.8821C41.4257 23.8821 41.9204 23.8821 42.4209 23.8821L42.4131 28.1554Z" fill="white"/>
<path d="M30.9771 0.503699C27.0119 -0.299219 22.9121 -0.140367 19.0209 0.96695C15.1305 2.04897 11.5458 4.02287 8.55132 6.73199C5.55684 9.44112 3.23501 12.8109 1.77008 16.5739C0.305152 20.3369 -0.262547 24.3896 0.112037 28.4103C0.48662 32.431 1.79317 36.309 3.92801 39.7366C4.43837 40.567 5.0194 41.3561 5.56313 42.1589C4.21852 44.4143 5.04295 46.6874 6.49355 47.8376C6.94569 48.1881 7.46364 48.4443 8.01665 48.5908C8.56966 48.7373 9.14647 48.7712 9.71284 48.6905C10.2792 48.6099 10.8236 48.4162 11.3137 48.1212C11.8038 47.8261 12.2297 47.4355 12.566 46.9727C12.9023 46.5099 13.1422 45.9842 13.2714 45.4269C13.4007 44.8696 13.4167 44.2921 13.3184 43.7285C13.2202 43.1649 13.0097 42.6268 12.6996 42.146C12.3894 41.6653 11.9858 41.2518 11.5127 40.9301C11.4401 40.883 11.3675 40.8378 11.2909 40.7947C11.1522 40.7145 11.0078 40.6443 10.8591 40.5846C10.81 40.563 10.759 40.5434 10.7079 40.5257C10.6275 40.4963 10.545 40.4688 10.4626 40.4453L10.2663 40.3962C10.2035 40.3805 10.1387 40.3667 10.07 40.355C9.96793 40.3353 9.87371 40.3216 9.76182 40.3098C8.95963 40.2367 8.15115 40.3392 7.39257 40.6101C7.29835 40.6416 7.19628 40.6749 7.11187 40.7103H7.08832C7.06441 40.7027 7.04281 40.6892 7.02551 40.671C6.93914 40.567 6.85669 40.459 6.77818 40.351C3.03488 35.1886 1.43706 29.4431 2.23205 23.1185C3.14873 15.8381 6.73107 10.1122 12.8181 6.04111C18.2279 2.42344 24.203 1.33009 30.6081 2.48821C31.3265 2.61973 31.8526 2.3194 31.9821 1.71482C32.1117 1.11024 31.7112 0.646993 30.9771 0.503699ZM9.13957 42.2865C9.43628 42.2777 9.73174 42.3285 10.0085 42.4359C10.2852 42.5434 10.5375 42.7053 10.7505 42.912C10.9635 43.1188 11.1328 43.3662 11.2484 43.6396C11.3641 43.9129 11.4237 44.2068 11.4237 44.5036C11.4237 44.8004 11.3641 45.0943 11.2484 45.3676C11.1328 45.641 10.9635 45.8884 10.7505 46.0952C10.5375 46.3019 10.2852 46.4638 10.0085 46.5713C9.73174 46.6787 9.43628 46.7296 9.13957 46.7207C8.56297 46.7036 8.01574 46.4625 7.61396 46.0485C7.21217 45.6346 6.98745 45.0805 6.98745 44.5036C6.98745 43.9268 7.21217 43.3726 7.61396 42.9587C8.01574 42.5448 8.56297 42.3036 9.13957 42.2865Z" fill="white"/>
<path d="M36.3634 2.84939C36.3634 2.9841 36.3367 3.11748 36.2849 3.24183C36.2331 3.36618 36.1572 3.47906 36.0616 3.57394C35.966 3.66883 35.8526 3.74385 35.7278 3.79468C35.6031 3.84551 35.4695 3.87115 35.3348 3.87012C35.0705 3.85818 34.8206 3.74598 34.6361 3.55636C34.4516 3.36674 34.3463 3.11393 34.3416 2.84939C34.3418 2.71472 34.3689 2.58145 34.4215 2.45744C34.474 2.33343 34.5508 2.2212 34.6474 2.12735C34.744 2.0335 34.8584 1.95994 34.9839 1.911C35.1094 1.86207 35.2434 1.83875 35.378 1.84242C35.5088 1.8437 35.6382 1.87077 35.7585 1.9221C35.8789 1.97342 35.988 2.04799 36.0795 2.14152C36.1711 2.23506 36.2432 2.34572 36.2919 2.46719C36.3406 2.58866 36.3649 2.71854 36.3634 2.84939Z" fill="white"/>
<path d="M17.696 49.1921C17.7015 49.3232 17.6806 49.4542 17.6347 49.5771C17.5887 49.7001 17.5185 49.8126 17.4283 49.9079C17.338 50.0033 17.2296 50.0796 17.1093 50.1323C16.9891 50.185 16.8595 50.213 16.7282 50.2147C16.5928 50.2203 16.4577 50.1984 16.331 50.1504C16.2042 50.1024 16.0885 50.0292 15.9908 49.9354C15.8931 49.8415 15.8153 49.7288 15.7623 49.6041C15.7092 49.4794 15.6819 49.3452 15.682 49.2097C15.687 48.9444 15.7944 48.6912 15.9817 48.5032C16.169 48.3152 16.4217 48.2068 16.687 48.2008C16.9517 48.2002 17.206 48.3039 17.3948 48.4895C17.5837 48.675 17.6918 48.9274 17.696 49.1921Z" fill="white"/>
<path d="M26.0129 17.6086C24.3481 17.6067 22.7201 18.0987 21.3351 19.0224C19.9501 19.9461 18.8702 21.2599 18.2323 22.7976C17.5943 24.3353 17.4268 26.0277 17.7511 27.6606C18.0755 29.2935 18.8769 30.7935 20.0541 31.9707C21.2313 33.1478 22.7313 33.9493 24.3642 34.2736C25.997 34.5979 27.6894 34.4305 29.2271 33.7925C30.7648 33.1545 32.0787 32.0747 33.0024 30.6896C33.9261 29.3046 34.4181 27.6767 34.4161 26.0119C34.4063 23.7862 33.5178 21.6545 31.944 20.0807C30.3702 18.5069 28.2385 17.6184 26.0129 17.6086ZM26.0129 32.3855C24.7538 32.3874 23.5223 32.0159 22.4744 31.318C21.4264 30.62 20.609 29.627 20.1254 28.4644C19.6419 27.3019 19.514 26.022 19.7578 24.7868C20.0017 23.5515 20.6065 22.4163 21.4955 21.5247C22.3846 20.6332 23.5182 20.0253 24.7527 19.778C25.9873 19.5307 27.2675 19.6551 28.4314 20.1354C29.5953 20.6157 30.5906 21.4304 31.2915 22.4764C31.9923 23.5224 32.3673 24.7528 32.3688 26.0119C32.3616 27.6973 31.69 29.3119 30.4996 30.5052C29.3093 31.6985 27.6963 32.3741 26.0109 32.3855H26.0129Z" fill="white"/>
</svg>
