<svg width="47" height="46" viewBox="0 0 47 46" fill="none" xmlns="http://www.w3.org/2000/svg">
<path d="M40.9581 2.18185C41.0379 2.10195 41.0973 2.0041 41.1312 1.89654C41.1652 1.78898 41.1727 1.67486 41.1532 1.56379C41.1337 1.45272 41.0877 1.34795 41.0191 1.2583C40.9505 1.16865 40.8613 1.09674 40.759 1.04863C39.1813 0.305775 37.4116 0.0681287 35.6929 0.368331C33.9743 0.668534 32.391 1.49186 31.1606 2.72524C28.7631 5.13105 27.9258 8.90939 29.044 12.0683L12.7515 28.3121C11.8463 27.994 10.8929 27.834 9.9332 27.8391C7.51311 27.8391 5.16644 28.7992 3.49609 30.4744C2.26997 31.6916 1.44124 33.2497 1.1185 34.9445C0.795748 36.6393 0.994035 38.3918 1.68738 39.9723C1.73282 40.0781 1.8037 40.1712 1.89375 40.2432C1.9838 40.3152 2.09025 40.364 2.20371 40.3853C2.31717 40.4066 2.43413 40.3997 2.54428 40.3652C2.65444 40.3308 2.75438 40.2698 2.8353 40.1877L7.76444 35.248C8.08919 34.9214 8.61302 34.8778 8.88412 35.1523L11.0119 37.3723C11.3212 37.6834 11.307 38.1634 10.9809 38.4914L6.07009 43.4184C5.99028 43.4982 5.93089 43.596 5.89692 43.7034C5.86296 43.8109 5.85542 43.9249 5.87494 44.0359C5.89446 44.1469 5.94047 44.2515 6.00908 44.3411C6.07769 44.4306 6.1669 44.5023 6.26917 44.5503C7.4118 45.0938 8.66156 45.3765 9.92755 45.378C12.1471 45.378 14.2552 44.4883 15.8677 42.8723C18.2652 40.4679 19.1024 36.6895 17.9828 33.5306L34.2753 17.2854C35.181 17.6034 36.1348 17.7634 37.095 17.7584C39.5151 17.7584 41.8618 16.7983 43.5321 15.1231C44.7582 13.9059 45.587 12.3478 45.9097 10.653C46.2325 8.95819 46.0342 7.2057 45.3408 5.62516C45.2954 5.51935 45.2245 5.42633 45.1345 5.3543C45.0444 5.28228 44.938 5.23346 44.8245 5.21218C44.711 5.19089 44.5941 5.19778 44.4839 5.23224C44.3738 5.26671 44.2738 5.32768 44.1929 5.40978L39.2638 10.3495C39.1115 10.4963 38.9072 10.5771 38.6954 10.5745C38.4836 10.5719 38.2814 10.4859 38.1328 10.3354L36.0163 8.22523C35.9408 8.15296 35.8807 8.06624 35.8396 7.97026C35.7985 7.87428 35.7772 7.77102 35.7771 7.66667C35.7769 7.56231 35.7979 7.45899 35.8388 7.36291C35.8796 7.26683 35.9395 7.17996 36.0149 7.1075L40.9581 2.18185ZM35.0166 9.2205L37.1331 11.3307C37.9789 12.1781 39.4276 12.1824 40.2648 11.3434L44.4019 7.199C44.7296 8.41667 44.7293 9.69897 44.4011 10.9165C44.0728 12.134 43.4283 13.2437 42.5324 14.1335C41.1247 15.5454 39.1452 16.3535 37.0964 16.3535C36.132 16.3535 35.2185 16.1733 34.3812 15.8185C34.2518 15.7636 34.1089 15.7484 33.9708 15.775C33.8327 15.8016 33.7057 15.8687 33.6061 15.9677L16.6626 32.8605C16.5634 32.9593 16.4961 33.0853 16.4692 33.2225C16.4422 33.3597 16.457 33.5017 16.5115 33.6305C17.6453 36.3193 16.9549 39.7893 14.8694 41.8812C13.9708 42.79 12.8395 43.4356 11.5984 43.7478C10.3574 44.0601 9.05427 44.027 7.8308 43.6521L11.9834 39.4853C12.8602 38.6054 12.8743 37.2413 12.0243 36.3911L9.8979 34.1711C9.07756 33.3476 7.619 33.3982 6.76618 34.2584L2.62915 38.4027C2.30145 37.185 2.30173 35.9027 2.62995 34.6852C2.95818 33.4677 3.60274 32.358 4.49858 31.4682C5.9063 30.0563 7.88586 29.2483 9.93461 29.2483C10.899 29.2483 11.8125 29.4284 12.6498 29.7832C12.7792 29.8385 12.9222 29.8539 13.0604 29.8273C13.1986 29.8007 13.3256 29.7333 13.425 29.634L30.3684 12.7412C30.4676 12.6424 30.535 12.5164 30.5619 12.3792C30.5888 12.242 30.574 12.1 30.5195 11.9712C29.3857 9.28244 30.0762 5.81098 32.1616 3.71909C33.0599 2.81125 34.1905 2.16618 35.4307 1.85397C36.6708 1.54175 37.9731 1.57434 39.196 1.94817L35.0166 6.11646C34.8099 6.31901 34.6458 6.56056 34.5337 6.82703C34.4217 7.0935 34.364 7.37954 34.364 7.66848C34.364 7.95741 34.4217 8.24346 34.5337 8.50992C34.6458 8.77639 34.8099 9.01795 35.0166 9.2205Z" fill="white"/>
<path d="M42.1667 43.4184C42.0097 43.569 41.8002 43.6529 41.5823 43.6523C41.3645 43.6518 41.1553 43.5669 40.9991 43.4156L26.8371 29.3383C26.7022 29.218 26.5261 29.1538 26.3451 29.1591C26.1642 29.1643 25.9921 29.2385 25.8643 29.3664C25.7366 29.4943 25.6629 29.6662 25.6584 29.8466C25.6539 30.0271 25.719 30.2023 25.8403 30.3364L40.0008 44.4109C40.4244 44.8346 40.9863 45.0683 41.585 45.0683C42.1837 45.0683 42.7456 44.8346 43.1777 44.401L45.1954 42.2993C45.4017 42.0963 45.5654 41.8545 45.6772 41.5879C45.7889 41.3213 45.8463 41.0352 45.8462 40.7462C45.8461 40.4573 45.7884 40.1713 45.6764 39.9048C45.5644 39.6383 45.4004 39.3966 45.194 39.1938L31.0744 25.1165C30.9413 24.9883 30.7629 24.9174 30.5778 24.919C30.3927 24.9206 30.2157 24.9946 30.0848 25.1251C29.9539 25.2556 29.8796 25.4321 29.878 25.6167C29.8764 25.8012 29.9476 25.979 30.0762 26.1118L44.1943 40.1877C44.5177 40.5114 44.5177 40.9816 44.1844 41.3167L42.1667 43.4184Z" fill="white"/>
<path d="M9.18905 4.70454L4.95318 0.48135C4.82079 0.349396 4.64126 0.275269 4.45406 0.275269C4.26686 0.275269 4.08732 0.349396 3.95493 0.48135L1.13102 3.29681C0.998667 3.4288 0.924316 3.6078 0.924316 3.79444C0.924316 3.98108 0.998667 4.16008 1.13102 4.29207L5.36689 8.51526C5.49945 8.64672 5.67875 8.72062 5.86572 8.72089C6.0527 8.72115 6.2322 8.64775 6.36514 8.51667L7.27726 7.60587L18.0731 18.3694C18.1381 18.4367 18.2159 18.4904 18.302 18.5274C18.3881 18.5644 18.4807 18.584 18.5744 18.5849C18.6682 18.5858 18.7612 18.5682 18.848 18.5329C18.9348 18.4976 19.0137 18.4455 19.08 18.3795C19.1464 18.3135 19.199 18.235 19.2346 18.1485C19.2702 18.0621 19.2882 17.9694 19.2875 17.876C19.2868 17.7825 19.2675 17.6901 19.2306 17.6042C19.1937 17.5183 19.1401 17.4405 19.0727 17.3755L8.27552 6.6106L9.18764 5.70121C9.25348 5.63592 9.30575 5.55832 9.34146 5.47286C9.37717 5.38739 9.39562 5.29575 9.39575 5.20316C9.39589 5.11058 9.3777 5.01888 9.34223 4.93332C9.30676 4.84776 9.25471 4.77001 9.18905 4.70454ZM5.86531 7.02307L2.62769 3.79514L4.45335 1.97495L7.69097 5.20287L5.86531 7.02307Z" fill="white"/>
</svg>
