<svg width="106" height="22" viewBox="0 0 106 22" fill="none" xmlns="http://www.w3.org/2000/svg">
<path d="M19.5312 0H2.34375C1.72215 0 1.12601 0.24693 0.686468 0.686469C0.24693 1.12601 0 1.72215 0 2.34375L0 19.5312C0 20.1529 0.24693 20.749 0.686468 21.1885C1.12601 21.6281 1.72215 21.875 2.34375 21.875H9.04541V14.438H5.96924V10.9375H9.04541V8.26953C9.04541 5.23486 10.8521 3.55859 13.6191 3.55859C14.9443 3.55859 16.3301 3.79492 16.3301 3.79492V6.77344H14.8032C13.2988 6.77344 12.8296 7.70703 12.8296 8.66455V10.9375H16.188L15.6509 14.438H12.8296V21.875H19.5312C20.1529 21.875 20.749 21.6281 21.1885 21.1885C21.6281 20.749 21.875 20.1529 21.875 19.5312V2.34375C21.875 1.72215 21.6281 1.12601 21.1885 0.686469C20.749 0.24693 20.1529 0 19.5312 0Z" fill="white"/>
<path d="M61.5312 0H44.3438C43.0498 0 42 1.0498 42 2.34375V19.5312C42 20.8252 43.0498 21.875 44.3438 21.875H61.5312C62.8252 21.875 63.875 20.8252 63.875 19.5312V2.34375C63.875 1.0498 62.8252 0 61.5312 0ZM59.1436 7.75391C59.1533 7.89062 59.1533 8.03223 59.1533 8.16895C59.1533 12.4023 55.9307 17.2803 50.042 17.2803C48.2256 17.2803 46.541 16.7529 45.125 15.8447C45.3838 15.874 45.6328 15.8838 45.8965 15.8838C47.3955 15.8838 48.7725 15.376 49.8711 14.5166C48.4648 14.4873 47.2832 13.5645 46.8779 12.2949C47.3711 12.3682 47.8154 12.3682 48.3232 12.2363C46.8584 11.9385 45.7598 10.6494 45.7598 9.0918V9.05273C46.1846 9.29199 46.6826 9.43848 47.2051 9.45801C46.7658 9.16584 46.4058 8.76947 46.157 8.30427C45.9082 7.83908 45.7784 7.31953 45.7793 6.79199C45.7793 6.19629 45.9355 5.64941 46.2139 5.17578C47.791 7.11914 50.1592 8.38867 52.8154 8.52539C52.3613 6.35254 53.9873 4.58984 55.9404 4.58984C56.8633 4.58984 57.6934 4.97559 58.2793 5.60059C59.002 5.46387 59.6953 5.19531 60.3105 4.8291C60.0713 5.57129 59.5684 6.19629 58.9043 6.5918C59.5488 6.52344 60.1738 6.34277 60.75 6.09375C60.3154 6.7334 59.7686 7.2998 59.1436 7.75391Z" fill="white"/>
<path d="M104.312 0H85.5576C84.6982 0 84 0.708008 84 1.57715V20.2979C84 21.167 84.6982 21.875 85.5576 21.875H104.312C105.172 21.875 105.875 21.167 105.875 20.2979V1.57715C105.875 0.708008 105.172 0 104.312 0ZM90.6113 18.75H87.3691V8.31055H90.6162V18.75H90.6113ZM88.9902 6.88477C87.9502 6.88477 87.1104 6.04004 87.1104 5.00488C87.1104 3.96973 87.9502 3.125 88.9902 3.125C90.0254 3.125 90.8701 3.96973 90.8701 5.00488C90.8701 6.04492 90.0303 6.88477 88.9902 6.88477ZM102.765 18.75H99.5225V13.6719C99.5225 12.4609 99.498 10.9033 97.8379 10.9033C96.1484 10.9033 95.8896 12.2217 95.8896 13.584V18.75H92.6475V8.31055H95.7578V9.73633H95.8018C96.2363 8.91602 97.2959 8.05176 98.873 8.05176C102.154 8.05176 102.765 10.2148 102.765 13.0273V18.75Z" fill="white"/>
</svg>
