<svg width="52" height="50" viewBox="0 0 52 50" fill="none" xmlns="http://www.w3.org/2000/svg">
<path d="M0 24.92C0.121654 11.0774 11.6405 -0.144 26.3213 0.00139716C40.4958 0.141815 52.1705 11.1551 51.9981 25.3298C51.8304 39.0668 40.3504 50.0209 25.9615 50C11.5266 49.9791 0.0341667 38.8348 0 24.92ZM49.7074 25.0644C49.6976 12.5981 39.4486 2.5797 26.7696 2.22218C13.252 1.84027 2.74939 12.0449 2.33007 24.1731C1.8802 37.1891 12.4993 47.3903 25.184 47.7807C38.8429 48.2009 49.6499 37.7119 49.7074 25.0659V25.0644Z" fill="#C90606"/>
<path d="M14.2485 33.338C14.2102 32.5648 14.5591 31.894 15.1705 31.31C17.1729 29.3979 19.1452 27.4619 21.159 25.5638C21.6249 25.1226 21.5897 24.8453 21.144 24.4245C19.1473 22.5389 17.1796 20.6243 15.1995 18.7227C13.9534 17.5276 13.8929 15.6479 15.068 14.5017C16.2431 13.3555 18.2206 13.3883 19.4574 14.5764C21.4366 16.4785 23.4138 18.3828 25.3889 20.2892C25.9703 20.8494 26.0422 20.8514 26.6112 20.3051C28.5915 18.4047 30.5688 16.5012 32.5432 14.5948C33.7505 13.4237 35.6897 13.343 36.8829 14.44C38.1005 15.5588 38.115 17.4549 36.8829 18.6585C34.9157 20.5745 32.932 22.4711 30.9534 24.3747C30.3239 24.9807 30.3151 25.0151 30.9602 25.6365C32.8756 27.4818 34.7998 29.3162 36.71 31.1636C38.0291 32.4408 38.1637 34.1905 37.0574 35.3806C35.8879 36.6389 33.8607 36.6672 32.5821 35.4393C30.6004 33.5385 28.6218 31.6359 26.6464 29.7315C26.0324 29.1415 25.9967 29.1464 25.3848 29.7315C23.3865 31.6456 21.388 33.5591 19.389 35.4722C18.9589 35.8874 18.4104 36.1706 17.8129 36.2858C17.2153 36.401 16.5957 36.3432 16.0324 36.1195C14.8951 35.6714 14.2299 34.6551 14.2485 33.338Z" fill="#C90606"/>
</svg>
