<svg width="41" height="45" viewBox="0 0 41 45" fill="none" xmlns="http://www.w3.org/2000/svg">
<path d="M40.8158 33.5219C40.4637 32.5604 39.769 31.9005 38.716 31.8563C38.1169 31.836 37.5205 31.9465 36.9683 32.1799C33.7066 33.5771 30.467 35.0217 27.2194 36.4552C27.0316 36.5373 26.8421 36.6131 26.629 36.7078C26.6179 36.5847 26.6085 36.5278 26.6069 36.4726C26.5485 33.9781 25.1986 32.5415 22.7216 32.2857C20.6771 32.0726 18.6373 31.8121 16.5928 31.5879C15.2808 31.4442 14.1615 30.8459 13.0595 30.1812C11.7604 29.3776 10.3211 28.827 8.81739 28.5582C8.05643 28.4272 7.28599 28.3562 6.51082 28.2567C6.51082 28.2077 6.49503 28.1525 6.49187 28.0988C6.42083 26.8232 5.72775 26.1585 4.45685 26.1538C3.62168 26.1538 2.78652 26.1538 1.95135 26.1538C0.746754 26.1633 0.00631505 26.8847 0.00473629 28.0846C-0.00157876 32.5462 -0.00157876 37.0072 0.00473629 41.4678C0.00473629 42.6787 0.760963 43.4112 1.98608 43.4207C2.74863 43.4207 3.51275 43.3923 4.27371 43.4207C5.66618 43.4902 6.45082 42.6455 6.50766 41.553C6.50766 41.5309 6.53924 41.5104 6.55818 41.4851C6.67501 41.5262 6.78236 41.5657 6.8913 41.602C9.41732 42.4498 11.8281 43.6402 14.452 44.2069H25.3313C26.4993 43.9803 27.6204 43.557 28.6467 42.955C32.3978 40.8289 36.1479 38.7013 39.8969 36.572C40.0767 36.4773 40.2374 36.3499 40.3705 36.1963C40.6806 35.8329 40.8859 35.392 40.9643 34.9209C41.0427 34.4497 40.9914 33.9661 40.8158 33.5219ZM38.986 35.6106C35.3722 37.663 31.7521 39.6917 28.1509 41.7583C26.7724 42.574 25.191 42.9824 23.5899 42.936C20.8712 42.865 18.151 42.9108 15.4324 42.9202C14.5697 42.923 13.7136 42.7684 12.9064 42.464C10.9029 41.7156 8.89949 40.9626 6.88814 40.23C6.57239 40.1164 6.48398 39.9664 6.48714 39.6411C6.50608 38.0861 6.49819 36.5326 6.48714 34.9791C6.48714 34.8086 6.50766 34.5812 6.41451 34.4818C6.25302 34.2838 6.03126 34.1441 5.78301 34.0839C5.47673 34.0492 5.25412 34.2797 5.2115 34.6112C5.1978 34.7544 5.19358 34.8984 5.19887 35.0422V41.302C5.19887 41.9603 5.04099 42.1214 4.38896 42.123C3.61379 42.123 2.83546 42.123 2.05871 42.123C1.46983 42.123 1.3009 41.9651 1.3009 41.392C1.3009 36.9894 1.3009 32.5862 1.3009 28.1825C1.3009 27.5841 1.44141 27.4484 2.04134 27.4468C2.8623 27.4468 3.68273 27.4468 4.50263 27.4468C5.02204 27.4468 5.19413 27.622 5.19729 28.1525C5.19729 29.275 5.19729 30.3975 5.19729 31.5184C5.19729 32.0599 5.44042 32.3567 5.85563 32.3441C6.27085 32.3315 6.48714 32.0284 6.48714 31.5247C6.48714 30.9074 6.48714 30.2917 6.48714 29.5481C7.36177 29.6744 8.19851 29.7549 9.01316 29.9254C10.3236 30.2088 11.5699 30.7334 12.6885 31.4726C14.1283 32.4009 15.704 32.8367 17.3964 32.9898C19.2562 33.1572 21.1128 33.3861 22.9678 33.6213C24.4093 33.8013 25.3155 34.8843 25.306 36.3526C25.306 36.5673 25.306 36.7804 25.306 37.0725H18.0437C17.9142 37.0725 17.7848 37.0725 17.6553 37.0725C17.2322 37.1088 16.9512 37.3883 16.9733 37.7577C16.9954 38.1271 17.2638 38.3576 17.6821 38.3592C20.4187 38.3592 23.152 38.3592 25.8822 38.3592C26.0823 38.3445 26.2775 38.2909 26.4569 38.2013C30.107 36.6005 33.7524 34.9985 37.393 33.3956C37.6271 33.2868 37.8729 33.2053 38.1255 33.1524C38.8439 33.0214 39.3886 33.3435 39.6206 34.0034C39.7317 34.3024 39.7283 34.6319 39.6112 34.9286C39.494 35.2252 39.2714 35.4681 38.986 35.6106Z" fill="#FFFAFA"/>
<path d="M35.1826 14.6872C35.1826 14.182 35.1826 13.6784 35.1826 13.1748C35.17 12.0823 34.5511 11.3229 33.4791 11.1098C33.3801 11.0995 33.2868 11.0582 33.2126 10.9919C33.1383 10.9256 33.0869 10.8376 33.0655 10.7403C32.7687 9.97831 32.4529 9.22418 32.1182 8.47796C32.0669 8.39723 32.0427 8.3022 32.0493 8.20676C32.0558 8.11132 32.0927 8.02047 32.1546 7.94749C32.4355 7.56504 32.569 7.09411 32.5307 6.62113C32.4925 6.14815 32.2849 5.70483 31.9462 5.37253C31.2168 4.62209 30.4716 3.88534 29.7106 3.16226C29.3793 2.82366 28.9352 2.61845 28.4626 2.58557C27.99 2.55268 27.5218 2.69441 27.1467 2.98386C27.0712 3.04434 26.979 3.08023 26.8824 3.08672C26.7859 3.09322 26.6897 3.06999 26.6068 3.02017C25.8569 2.69337 25.1022 2.3792 24.3381 2.0887C24.2427 2.06683 24.1563 2.01592 24.091 1.94298C24.0257 1.87003 23.9846 1.77864 23.9734 1.68138C23.7666 0.636242 23.0104 0.00473629 21.9384 0.00473629C20.9448 -0.00157876 19.9518 -0.00157876 18.9592 0.00473629C17.8983 0.0173664 17.1263 0.647293 16.9274 1.69401C16.8784 1.95293 16.7521 2.03503 16.5311 2.12186C15.7828 2.41235 15.0408 2.71863 14.3098 3.05333C14.2221 3.10605 14.12 3.12985 14.018 3.12135C13.916 3.11285 13.8192 3.07248 13.7414 3.00596C13.3635 2.73665 12.9024 2.60997 12.44 2.64841C11.9775 2.68685 11.5437 2.88793 11.2154 3.21594C10.4587 3.95059 9.71559 4.69787 8.9862 5.45778C8.64611 5.78765 8.4387 6.23072 8.40321 6.70318C8.36772 7.17563 8.5066 7.64472 8.79359 8.02169C8.95147 8.24272 8.91042 8.38639 8.81728 8.6011C8.49521 9.33786 8.19051 10.0815 7.90317 10.8319C7.88226 10.926 7.83311 11.0115 7.7623 11.077C7.69149 11.1424 7.60239 11.1847 7.5069 11.1982C6.43334 11.4129 5.81763 12.1723 5.81763 13.2742C5.81763 14.2373 5.81763 15.2014 5.81763 16.1665C5.8271 17.2875 6.4365 18.0153 7.53532 18.2789C7.61438 18.306 7.68715 18.3487 7.74928 18.4046C7.81141 18.4605 7.8616 18.5284 7.89686 18.6041C8.23155 19.3509 8.52836 20.115 8.8599 20.8618C8.91652 20.9475 8.94375 21.0492 8.93748 21.1518C8.93122 21.2543 8.8918 21.352 8.82517 21.4301C8.55137 21.8053 8.42049 22.2659 8.45609 22.729C8.49169 23.1921 8.69143 23.6272 9.01936 23.9561C9.7498 24.7108 10.495 25.4512 11.2549 26.1775C11.5871 26.5147 12.0296 26.7212 12.5015 26.7592C12.9734 26.7972 13.4432 26.6641 13.8251 26.3843C13.8989 26.3213 13.9903 26.2826 14.0869 26.2733C14.1834 26.264 14.2805 26.2845 14.365 26.3322C15.126 26.6669 15.9059 26.9637 16.6669 27.2952C16.7412 27.3327 16.8073 27.3845 16.8615 27.4477C16.9157 27.5108 16.9568 27.584 16.9826 27.6631C17.2337 28.7335 17.9709 29.3492 19.0698 29.3539C20.0328 29.3539 20.9969 29.3513 21.9621 29.346C23.083 29.346 23.8187 28.7287 24.0808 27.6347C24.1064 27.5559 24.1475 27.483 24.2017 27.4204C24.256 27.3577 24.3222 27.3066 24.3965 27.27C25.1543 26.9305 25.9326 26.6385 26.6889 26.2864C26.7715 26.2373 26.8677 26.2159 26.9634 26.2253C27.0591 26.2346 27.1493 26.2743 27.2209 26.3385C27.5901 26.6096 28.0428 26.7424 28.5 26.7135C28.9571 26.6846 29.3895 26.496 29.7217 26.1806C30.5142 25.427 31.2847 24.6513 32.033 23.8535C32.3536 23.5249 32.5459 23.0922 32.5748 22.634C32.6038 22.1758 32.4676 21.7223 32.1909 21.3559C32.0235 21.1223 32.0677 20.9675 32.1688 20.7402C32.4845 20.0313 32.7845 19.3193 33.0513 18.5899C33.146 18.331 33.2471 18.2031 33.5328 18.1479C33.9908 18.0676 34.4053 17.8268 34.7018 17.4686C34.9984 17.1104 35.1576 16.6583 35.151 16.1934C35.1826 15.6913 35.1826 15.1861 35.1826 14.6872ZM33.8849 16.0813C33.8849 16.6117 33.6907 16.8549 33.1571 16.9086C32.4956 16.9733 32.1435 17.3364 31.924 17.9379C31.6193 18.7731 31.2925 19.5988 30.9136 20.4039C30.65 20.9754 30.6579 21.4696 31.0542 21.9685C31.4094 22.4169 31.392 22.701 30.9989 23.1036C30.3358 23.7825 29.6669 24.4561 28.9923 25.1244C28.6055 25.5049 28.2771 25.5223 27.8508 25.1797C27.3772 24.8024 26.9036 24.7818 26.3636 25.0218C25.5001 25.407 24.627 25.7701 23.7461 26.1159C23.1966 26.3322 22.8746 26.689 22.8241 27.2905C22.7799 27.8225 22.5194 28.0546 21.9794 28.0594C21.0164 28.0688 20.0528 28.0688 19.0887 28.0594C18.6151 28.0594 18.3404 27.8604 18.2993 27.3836C18.2314 26.6195 17.791 26.2785 17.1058 26.048C16.3316 25.7854 15.5754 25.4727 14.8418 25.1118C14.2466 24.8229 13.7367 24.815 13.2047 25.2428C12.7973 25.5744 12.4784 25.5475 12.0995 25.1781C11.408 24.5056 10.7239 23.8267 10.0471 23.1415C9.68717 22.7768 9.67454 22.4405 10.0045 22.0364C10.3945 21.5627 10.4087 21.067 10.1624 20.5113C9.78453 19.6766 9.43141 18.8299 9.10303 17.9711C8.87885 17.3917 8.53152 17.0333 7.88265 16.9938C7.39797 16.9638 7.14537 16.6954 7.13747 16.2155C7.12326 15.2224 7.12326 14.2294 7.13747 13.2363C7.13747 12.7627 7.3806 12.4927 7.8716 12.447C8.51415 12.3917 8.86937 12.0412 9.08567 11.4555C9.40142 10.6093 9.73612 9.76938 10.1134 8.95001C10.3755 8.37849 10.3676 7.88118 9.96504 7.38861C9.62402 6.96866 9.6335 6.6608 9.99977 6.28348C10.6613 5.59198 11.3433 4.8989 12.049 4.21214C12.2209 4.08501 12.4075 3.979 12.6047 3.89639C12.7965 3.98134 12.9808 4.08221 13.1557 4.19793C13.6293 4.5642 14.103 4.58157 14.6476 4.3416C15.4986 3.96427 16.3606 3.60747 17.2273 3.26804C17.7894 3.04701 18.1304 2.69179 18.1746 2.06818C18.2141 1.55666 18.4777 1.31669 18.9861 1.31037C19.9649 1.3009 20.9427 1.3009 21.9194 1.31037C22.4088 1.31037 22.682 1.55035 22.7167 2.03345C22.7641 2.69968 23.1303 3.05017 23.735 3.26804C24.556 3.56643 25.3722 3.89007 26.1616 4.26108C26.7599 4.54368 27.2762 4.54999 27.8003 4.12373C28.2329 3.77166 28.4981 3.79535 28.8944 4.18372C29.5733 4.84785 30.2474 5.51672 30.9168 6.19033C31.3115 6.58976 31.3257 6.91024 30.9705 7.36493C30.6153 7.81961 30.5884 8.29166 30.8221 8.81739C31.2104 9.69413 31.5788 10.5798 31.9272 11.4744C32.1498 12.0033 32.4987 12.3191 33.0813 12.3617C33.6638 12.4043 33.8707 12.6617 33.8707 13.23C33.8791 14.1794 33.8812 15.1288 33.877 16.0781L33.8849 16.0813Z" fill="#FFFAFA"/>
<path d="M28.6276 15.4229C28.3118 15.5334 28.2234 15.7845 28.154 16.086C27.603 18.7462 26.1016 20.6865 23.6292 21.8011C21.5768 22.7247 19.4834 22.69 17.3537 21.8138C17.8052 21.3097 18.3522 20.9 18.963 20.6084C19.5738 20.3169 20.2362 20.1492 20.9122 20.115C24.3965 19.8829 26.8231 16.6512 26.04 13.3058C25.9295 12.8322 25.7243 12.477 25.2412 12.3317C24.758 12.1865 24.3823 12.4028 24.0508 12.739C23.2803 13.5158 22.5067 14.2889 21.73 15.0582C21.3779 15.4071 21.179 15.4024 20.8206 15.0582C20.5949 14.8372 20.3722 14.6115 20.1496 14.3873C19.7565 13.9894 19.755 13.811 20.1496 13.4163C20.939 12.6269 21.7473 11.8376 22.5273 11.0324C23.1982 10.3393 22.9219 9.40785 21.9921 9.16788C21.2796 8.98671 20.5384 8.94881 19.8112 9.05637C19.084 9.16393 18.3854 9.41481 17.756 9.79445C17.1265 10.1741 16.5787 10.6749 16.1443 11.268C15.7099 11.861 15.3976 12.5343 15.2255 13.249C15.0944 13.8063 15.0676 14.3873 14.9681 14.9525C14.7735 16.0611 14.2099 17.0715 13.3689 17.8195C12.7777 16.485 12.5774 15.0102 12.791 13.5663C13.0325 11.862 13.8324 10.286 15.0654 9.08486C16.2984 7.88378 17.8949 7.1255 19.605 6.92875C21.315 6.73201 23.042 7.10792 24.5155 7.99761C25.9891 8.88731 27.126 10.2406 27.7482 11.8455C27.9061 12.2607 28.004 12.698 28.1319 13.1243C28.2708 13.5884 28.6734 13.7984 29.0602 13.5979C29.447 13.3974 29.4422 13.0311 29.3586 12.6506C28.2724 7.85592 23.5724 4.82786 18.683 5.77354C13.9467 6.68922 10.6818 11.3576 11.5485 16.1523C12.2243 19.8987 14.4677 22.4247 18.1446 23.4146C21.7884 24.3982 24.9333 23.3357 27.4451 20.5081C28.5297 19.2877 29.1628 17.8242 29.4517 16.2265C29.5543 15.674 29.1202 15.2524 28.6276 15.4229ZM16.3354 20.9865C16.2864 21.037 16.228 21.0781 16.0827 21.1996C15.3849 20.5071 14.6882 19.8156 13.9925 19.1251L13.9214 18.9088C14.1046 18.8247 14.2769 18.7187 14.4345 18.5931C15.5837 17.4612 16.2689 15.9411 16.3559 14.3304C16.42 13.2039 16.9254 12.148 17.7625 11.3915C18.5997 10.635 19.7013 10.2388 20.8285 10.2888C20.9864 10.2967 21.1316 10.3267 21.3732 10.3598C20.6533 11.0798 19.9933 11.7381 19.3366 12.3964C18.282 13.4479 18.2867 14.3415 19.3461 15.3961C19.5481 15.5998 19.7502 15.805 19.9555 16.0071C20.7859 16.8233 21.79 16.8233 22.6251 16.0071C23.2566 15.3914 23.866 14.7677 24.4881 14.1473C24.5765 14.0589 24.676 13.9894 24.7691 13.8963L24.9143 13.9278C24.8686 14.4709 24.8828 15.033 24.7565 15.5587C24.5629 16.4287 24.0941 17.2131 23.4195 17.7955C22.7449 18.3779 21.9005 18.7274 21.0116 18.792C19.1519 18.9309 17.5999 19.6288 16.3354 20.9865Z" fill="#FFFAFA"/>
</svg>
