<svg width="52" height="46" viewBox="0 0 52 46" fill="none" xmlns="http://www.w3.org/2000/svg">
<path d="M7.09399 16.7553C8.59499 16.1344 10.0358 16.0629 11.5061 16.3777C13.496 16.8046 15.2046 17.8158 16.8136 19.0129C18.7072 20.4217 20.3647 22.0846 21.948 23.8253C22.047 23.9347 22.1474 24.0428 22.2795 24.187C22.8882 23.3594 23.4802 22.5504 24.0758 21.7449C27.0131 17.7733 30.0549 13.889 33.5707 10.4022C36.0404 7.95327 38.681 5.72596 41.7757 4.08929C44.0243 2.89943 46.3886 2.1175 48.9624 2.09218C49.987 2.0752 51.009 2.19876 52.0001 2.4594C49.1989 2.79723 47.2018 4.42078 45.3046 6.17821C42.4663 8.80801 40.107 11.8539 37.8534 14.9825C33.9049 20.4633 30.4194 26.2389 27.0493 32.0855C26.2416 33.4875 25.2855 34.7723 23.9469 35.7202C22.0624 37.0525 20.2493 36.7956 18.8148 34.9989C17.8859 33.8348 17.3197 32.4704 16.7232 31.1272C15.5365 28.4549 14.5456 25.6962 13.2472 23.0691C12.4201 21.3994 11.5115 19.7822 10.172 18.4526C9.76114 18.0426 9.30101 17.6851 8.80212 17.3885C8.30104 17.0909 7.75653 16.9023 7.09399 16.7553Z" fill="#0B9303"/>
<path d="M42.2121 11.351C43.2907 13.231 44.0663 15.1354 44.5592 17.151C47.2058 27.9809 41.8828 38.8588 31.7114 43.4197C22.7569 47.4352 11.875 44.9745 5.49251 37.4695C1.4915 32.7661 -0.324719 27.3035 0.0474787 21.1489C0.661627 10.9937 8.17658 2.39429 18.1974 0.458231C25.1538 -0.88584 31.4278 0.740432 36.9769 5.15841C37.2681 5.38996 37.2677 5.50257 36.9706 5.72327C36.4107 6.13978 35.8702 6.5857 35.3474 7.04789C35.1213 7.24778 34.9856 7.23467 34.7532 7.05467C31.9628 4.87802 28.8139 3.50998 25.3053 3.05547C19.9779 2.3649 15.1 3.58415 10.8005 6.81453C6.29931 10.196 3.67991 14.7374 2.99295 20.3244C1.80038 30.0237 7.89754 39.0827 17.34 41.7509C26.0683 44.2147 35.5849 40.2445 39.8916 32.2673C43.075 26.3705 43.2138 20.3281 40.4863 14.216C40.3479 13.9062 40.3334 13.7 40.5623 13.4291C41.1167 12.7706 41.635 12.0836 42.2121 11.351Z" fill="#0B9303"/>
</svg>
