<svg width="17" height="104" viewBox="0 0 17 104" fill="none" xmlns="http://www.w3.org/2000/svg">
<path d="M9.01774 0C4.50064 0 1 3.30146 1 7.76072C1 10.0931 1.95839 12.1087 3.51839 13.501C3.78774 13.7433 3.73226 13.8836 3.77806 15.3795C3.78167 15.4843 3.81086 15.5866 3.86308 15.6775C3.9153 15.7684 3.98897 15.8451 4.07767 15.901C4.16636 15.9569 4.26738 15.9903 4.37192 15.9982C4.47646 16.0061 4.58134 15.9883 4.67742 15.9463C6.38419 15.1946 6.40613 15.1353 6.69548 15.214C11.6403 16.575 17 13.4104 17 7.76072C17 3.30146 13.5352 0 9.01774 0ZM13.8319 5.97224L11.4771 9.70049C11.3882 9.84069 11.2713 9.961 11.1337 10.0539C10.9961 10.1468 10.8408 10.2103 10.6775 10.2403C10.5142 10.2704 10.3465 10.2664 10.1849 10.2287C10.0232 10.1909 9.8711 10.1201 9.73806 10.0208L7.86452 8.6185C7.78076 8.55568 7.67889 8.52172 7.57419 8.52172C7.4695 8.52172 7.36763 8.55568 7.28387 8.6185L4.75581 10.536C4.41839 10.7918 3.97645 10.3876 4.20387 10.0305L6.55871 6.30226C6.6476 6.16203 6.76451 6.04168 6.9021 5.94875C7.03968 5.85583 7.19499 5.79234 7.35827 5.76226C7.52155 5.73218 7.68928 5.73617 7.85094 5.77397C8.01261 5.81177 8.16472 5.88256 8.29774 5.98192L10.1706 7.38392C10.2544 7.44675 10.3563 7.4807 10.461 7.4807C10.5657 7.4807 10.6675 7.44675 10.7513 7.38392L13.2806 5.46834C13.6174 5.21091 14.0594 5.6148 13.8319 5.97224Z" fill="white"/>
<path d="M15.5437 54.0128L12.0436 52.419C11.8941 52.3513 11.728 52.3371 11.5701 52.3784C11.4123 52.4197 11.2714 52.5144 11.1686 52.6481L9.61861 54.6603C7.18598 53.4416 5.22828 51.3616 4.08132 48.7769L5.9751 47.13C6.10126 47.021 6.19054 46.8713 6.22945 46.7035C6.26836 46.5358 6.25477 46.3591 6.19073 46.2003L4.69071 42.4815C4.62043 42.3103 4.49613 42.1705 4.33925 42.0863C4.18236 42.002 4.00273 41.9786 3.83132 42.02L0.58126 42.8168C0.415998 42.8574 0.26855 42.9563 0.162983 43.0973C0.0574151 43.2384 -3.80697e-05 43.4133 1.8926e-08 43.5935C1.8926e-08 52.1102 6.49699 59 14.5003 59C14.6699 59.0001 14.8346 58.9391 14.9674 58.8269C15.1002 58.7148 15.1933 58.5581 15.2315 58.3824L15.9815 54.9292C16.0202 54.7462 15.9977 54.5546 15.9178 54.3873C15.8379 54.2201 15.7056 54.0876 15.5437 54.0128Z" fill="white"/>
<path d="M16.7824 101.833L13.6665 98.7178C13.5259 98.5772 13.3353 98.4991 13.1353 98.4991H12.6259C13.4884 97.3959 14.0009 96.0087 14.0009 94.4994C14.0009 90.9091 11.0912 88 7.50059 88C3.90999 88 1 90.9091 1 94.4994C1 98.0897 3.90967 100.999 7.50059 100.999C9.00996 100.999 10.3978 100.486 11.5009 99.6237V100.133C11.5009 100.333 11.579 100.524 11.7196 100.664L14.8356 103.78C15.1293 104.073 15.6043 104.073 15.8949 103.78L16.7793 102.895C17.073 102.602 17.073 102.127 16.7824 101.833ZM7.50059 98.9987C5.01498 98.9987 3.00061 96.9881 3.00061 94.4994C3.00061 92.0141 5.01154 90 7.50059 90C9.98621 90 12.0006 92.0106 12.0006 94.4994C12.0006 96.9847 9.98964 98.9987 7.50059 98.9987ZM7.50122 91.5C6.22685 91.5 5.19373 92.5328 5.19373 93.8072C5.19373 94.8372 6.70185 96.715 7.27966 97.3966C7.30676 97.429 7.34064 97.4551 7.37893 97.473C7.41721 97.4909 7.45896 97.5001 7.50122 97.5001C7.54348 97.5001 7.58522 97.4909 7.62351 97.473C7.66179 97.4551 7.69568 97.429 7.72278 97.3966C8.30059 96.715 9.80871 94.8375 9.80871 93.8072C9.80871 92.5328 8.77559 91.5 7.50122 91.5ZM7.50122 94.5C7.08684 94.5 6.75122 94.1641 6.75122 93.75C6.75122 93.3356 7.08716 93 7.50122 93C7.91528 93 8.25121 93.3356 8.25121 93.75C8.25121 94.1641 7.91528 94.5 7.50122 94.5Z" fill="white"/>
</svg>
