<svg width="31" height="31" viewBox="0 0 31 31" fill="none" xmlns="http://www.w3.org/2000/svg">
<g clip-path="url(#clip0_8_1222)">
<path d="M30.5786 26.8017L24.5415 20.7658C24.269 20.4933 23.8997 20.3419 23.5122 20.3419H22.5253C24.1963 18.2046 25.1893 15.517 25.1893 12.5925C25.1893 5.63631 19.5518 0 12.595 0C5.63813 0 0 5.63631 0 12.5925C0 19.5488 5.63752 25.1851 12.595 25.1851C15.5194 25.1851 18.2083 24.1921 20.3456 22.521V23.5079C20.3456 23.8954 20.4969 24.2648 20.7694 24.5372L26.8065 30.5731C27.3757 31.1423 28.296 31.1423 28.8591 30.5731L30.5725 28.8597C31.1417 28.2905 31.1417 27.3708 30.5786 26.8017ZM12.595 21.3101C7.77906 21.3101 3.87621 17.4145 3.87621 12.5925C3.87621 7.77725 7.7724 3.875 12.595 3.875C17.4109 3.875 21.3137 7.77059 21.3137 12.5925C21.3137 17.4078 17.4175 21.3101 12.595 21.3101ZM12.5962 6.78125C10.1271 6.78125 8.12539 8.78232 8.12539 11.2514C8.12539 13.2471 11.0474 16.8853 12.1669 18.2058C12.2194 18.2687 12.2851 18.3192 12.3592 18.3539C12.4334 18.3886 12.5143 18.4065 12.5962 18.4065C12.6781 18.4065 12.7589 18.3886 12.8331 18.3539C12.9073 18.3192 12.9729 18.2687 13.0255 18.2058C14.145 16.8853 17.067 13.2477 17.067 11.2514C17.067 8.78232 15.0653 6.78125 12.5962 6.78125ZM12.5962 12.5938C11.7933 12.5938 11.143 11.9429 11.143 11.1406C11.143 10.3378 11.7939 9.6875 12.5962 9.6875C13.3984 9.6875 14.0493 10.3378 14.0493 11.1406C14.0493 11.9429 13.3984 12.5938 12.5962 12.5938Z" fill="white"/>
</g>
<defs>
<clipPath id="clip0_8_1222">
<rect width="31" height="31" fill="white"/>
</clipPath>
</defs>
</svg>
