<svg width="23" height="23" viewBox="0 0 23 23" fill="none" xmlns="http://www.w3.org/2000/svg">
<path d="M11.6216 0.465576C5.5974 0.465576 0.705566 5.35741 0.705566 11.3816C0.705566 17.4058 5.5974 22.2976 11.6216 22.2976C17.6458 22.2976 22.5376 17.4058 22.5376 11.3816C22.5376 5.35741 17.6458 0.465576 11.6216 0.465576ZM11.6216 1.19331C17.2528 1.19331 21.8099 5.75039 21.8099 11.3816C21.8099 17.0128 17.2528 21.5699 11.6216 21.5699C5.99038 21.5699 1.4333 17.0128 1.4333 11.3816C1.4333 5.75039 5.99038 1.19331 11.6216 1.19331ZM11.6216 2.64878C6.80326 2.64878 2.88877 6.56327 2.88877 11.3816C2.88877 16.2007 6.80326 20.1144 11.6216 20.1144C16.4399 20.1144 20.3544 16.2007 20.3544 11.3816C20.3544 6.56327 16.4399 2.64878 11.6216 2.64878ZM11.6216 3.37652C15.5492 3.37652 18.8043 6.19795 19.4884 9.92614H17.2717C16.3366 8.53252 14.1046 7.74293 11.6129 7.74293C11.6124 7.74293 11.6119 7.74293 11.6114 7.74293C9.12838 7.74293 6.91024 8.53762 5.98019 9.92614H3.75405C4.43885 6.19795 7.69401 3.37652 11.6216 3.37652ZM11.6129 8.47067C13.9955 8.47067 16.0557 9.34613 16.7128 10.4021L16.7114 12.9128C15.7956 12.9962 14.9379 13.3979 14.2876 14.048C13.6372 14.6982 13.2351 15.5556 13.1513 16.4714H10.0919C10.0084 15.5557 9.60665 14.6983 8.9565 14.0482C8.30635 13.398 7.44892 12.9963 6.53327 12.9128L6.53036 10.4152C7.17659 9.3585 9.23026 8.47358 11.6129 8.47067ZM3.65362 10.6539H5.80262L5.80408 12.1093H3.65289C3.63106 11.8692 3.61651 11.6276 3.61651 11.3816C3.61651 11.1364 3.63252 10.894 3.65362 10.6539ZM11.6216 10.6539C10.8218 10.6539 10.1661 11.3096 10.1661 12.1093C10.1661 12.9091 10.8218 13.5648 11.6216 13.5648C12.4214 13.5648 13.0771 12.9091 13.0771 12.1093C13.0771 11.3096 12.4214 10.6539 11.6216 10.6539ZM17.4406 10.6539H19.5896C19.6114 10.894 19.6267 11.1364 19.6267 11.3816C19.6267 11.6276 19.6114 11.8692 19.5903 12.1093H17.4391L17.4406 10.6539ZM11.6216 11.3816C12.0277 11.3816 12.3493 11.7033 12.3493 12.1093C12.3493 12.5154 12.0277 12.8371 11.6216 12.8371C11.2155 12.8371 10.8939 12.5154 10.8939 12.1093C10.8939 11.7033 11.2155 11.3816 11.6216 11.3816ZM3.75478 12.8371H5.80554V13.2024C5.80554 13.2989 5.84387 13.3915 5.91211 13.4597C5.98035 13.5279 6.0729 13.5663 6.1694 13.5663C6.59891 13.5655 7.02434 13.6495 7.4213 13.8135C7.81826 13.9776 8.17893 14.2183 8.48264 14.522C8.78634 14.8257 9.02711 15.1864 9.19112 15.5834C9.35513 15.9803 9.43916 16.4058 9.43839 16.8353C9.43839 16.9318 9.47673 17.0243 9.54497 17.0926C9.6132 17.1608 9.70576 17.1991 9.80226 17.1991H10.1661V19.2477C8.57411 18.9538 7.10879 18.1836 5.96398 17.039C4.81917 15.8943 4.04881 14.4291 3.75478 12.8371ZM17.4391 12.8371H19.4891C19.1951 14.4292 18.4246 15.8945 17.2796 17.0392C16.1347 18.1838 14.6692 18.954 13.0771 19.2477V17.1991H13.4409C13.5374 17.1991 13.63 17.1608 13.6982 17.0926C13.7665 17.0243 13.8048 16.9318 13.8048 16.8353C13.8042 16.4057 13.8884 15.9802 14.0526 15.5833C14.2168 15.1863 14.4577 14.8256 14.7615 14.5219C15.0653 14.2182 15.4261 13.9775 15.8231 13.8135C16.2202 13.6495 16.6457 13.5655 17.0752 13.5663C17.1717 13.5663 17.2643 13.5279 17.3325 13.4597C17.4008 13.3915 17.4391 13.2989 17.4391 13.2024V12.8371ZM10.8939 17.1991H12.3493V19.3481C12.1092 19.37 11.8676 19.3867 11.6216 19.3867C11.3756 19.3867 11.134 19.37 10.8939 19.3481V17.1991Z" fill="white"/>
</svg>
