<svg width="46" height="46" viewBox="0 0 46 46" fill="none" xmlns="http://www.w3.org/2000/svg">
<path d="M23.229 0.291626C10.7743 0.291626 0.661011 10.4049 0.661011 22.8597C0.661011 35.3144 10.7743 45.4277 23.229 45.4277C35.6838 45.4277 45.7971 35.3144 45.7971 22.8597C45.7971 10.4049 35.6838 0.291626 23.229 0.291626ZM23.229 1.6584C34.9461 1.6584 44.4303 11.1426 44.4303 22.8597C44.4303 34.5767 34.9461 44.0609 23.229 44.0609C11.512 44.0609 2.02779 34.5767 2.02779 22.8597C2.02779 11.1426 11.512 1.6584 23.229 1.6584ZM14.0608 12.9861C13.8737 12.9861 13.6944 13.0604 13.5621 13.1927C13.4298 13.325 13.3555 13.5044 13.3555 13.6914V30.6174C13.3555 30.8045 13.4298 30.9839 13.5621 31.1161C13.6944 31.2484 13.8737 31.3227 14.0608 31.3227H22.1274C21.9713 30.8657 21.8677 30.3925 21.8185 29.9122H14.766V17.2177H30.2816V21.4492C30.7668 21.5056 31.2463 21.5973 31.6921 21.7581V13.6914C31.6921 13.5044 31.6178 13.325 31.4855 13.1927C31.3532 13.0604 31.1739 12.9861 30.9868 12.9861H14.0608ZM14.766 14.3966H30.2816V15.8071H14.766V14.3966ZM16.1765 18.6282V20.0387H17.587V18.6282H16.1765ZM18.9975 18.6282V20.0387H20.408V18.6282H18.9975ZM21.8185 18.6282V20.0387H23.229V18.6282H21.8185ZM24.6395 18.6282V20.0387H26.0501V18.6282H24.6395ZM27.4606 18.6282V20.0387H28.8711V18.6282H27.4606ZM16.1765 21.4492V22.8597H17.587V21.4492H16.1765ZM18.9975 21.4492V22.8597H20.408V21.4492H18.9975ZM21.8185 21.4492V22.8597H23.229V21.4492H21.8185ZM24.6395 21.4492V22.8597H25.3885C25.6156 22.7087 25.8074 22.5465 26.0501 22.4182V21.4492H24.6395ZM29.5763 22.8597C26.0783 22.8597 23.229 25.7089 23.229 29.2069C23.229 32.705 26.0783 35.5542 29.5763 35.5542C33.0744 35.5542 35.9236 32.705 35.9236 29.2069C35.9236 25.7089 33.0744 22.8597 29.5763 22.8597ZM29.5763 24.0064C30.2595 24.0058 30.936 24.14 31.5673 24.4011C32.1986 24.6622 32.7722 25.0453 33.2554 25.5283C33.7385 26.0113 34.1217 26.5848 34.383 27.216C34.6443 27.8472 34.7786 28.5238 34.7782 29.2069C34.7788 29.8902 34.6446 30.5669 34.3834 31.1983C34.1222 31.8296 33.739 32.4033 33.2559 32.8865C32.7727 33.3696 32.199 33.7528 31.5677 34.014C30.9363 34.2752 30.2596 34.4094 29.5763 34.4089C28.893 34.4094 28.2163 34.2752 27.585 34.014C26.9536 33.7528 26.3799 33.3696 25.8967 32.8865C25.4136 32.4033 25.0304 31.8296 24.7692 31.1983C24.508 30.5669 24.3738 29.8902 24.3744 29.2069C24.3738 28.5236 24.508 27.8469 24.7692 27.2156C25.0304 26.5842 25.4136 26.0105 25.8967 25.5274C26.3799 25.0442 26.9536 24.6611 27.585 24.3998C28.2163 24.1386 28.893 24.0058 29.5763 24.0064ZM16.1765 24.2702V25.6807H17.587V24.2702H16.1765ZM18.9975 24.2702V25.6807H20.408V24.2702H18.9975ZM21.8185 24.2702V25.6807H22.789C22.9159 25.4381 23.0781 25.2462 23.229 25.0191V24.2702H21.8185ZM29.4437 25.6807C29.2805 25.7119 29.1335 25.7998 29.0287 25.9288C28.9239 26.0578 28.8681 26.2197 28.8711 26.3859V29.2069C28.8711 29.394 28.9454 29.5733 29.0776 29.7056C29.2099 29.8379 29.3893 29.9122 29.5763 29.9122H32.0884C32.2755 29.9122 32.4548 29.8379 32.5871 29.7056C32.7194 29.5733 32.7937 29.394 32.7937 29.2069C32.7937 29.0199 32.7194 28.8405 32.5871 28.7082C32.4548 28.576 32.2755 28.5017 32.0884 28.5017H30.2816V26.3859C30.2816 26.1989 30.2073 26.0195 30.075 25.8872C29.9427 25.755 29.7633 25.6807 29.5763 25.6807C29.5322 25.6765 29.4878 25.6765 29.4437 25.6807ZM16.1765 27.0912V28.5017H17.587V27.0912H16.1765ZM18.9975 27.0912V28.5017H20.408V27.0912H18.9975Z" fill="#FFFCFC"/>
</svg>
