<svg width="29" height="23" viewBox="0 0 29 23" fill="none" xmlns="http://www.w3.org/2000/svg">
<path d="M26.5024 8.88435L25.8233 7.20128L24.6192 4.21667C23.5855 1.65492 21.1199 0 18.3365 0H10.6635C7.88075 0 5.41454 1.65492 4.38081 4.21667L3.17671 7.20128L2.49762 8.88435C1.04037 9.43359 0 10.8208 0 12.4583V15.3333C0 16.2989 0.372167 17.1703 0.966667 17.8448V21.0833C0.966667 22.1417 1.83244 23 2.9 23H4.83333C5.9009 23 6.76667 22.1417 6.76667 21.0833V19.1667H22.2333V21.0833C22.2333 22.1417 23.0991 23 24.1667 23H26.1C27.1676 23 28.0333 22.1417 28.0333 21.0833V17.8448C28.6278 17.1709 29 16.2995 29 15.3333V12.4583C29 10.8208 27.9596 9.43359 26.5024 8.88435ZM7.97077 5.64039C8.41121 4.54909 9.47756 3.83333 10.6635 3.83333H18.3365C19.5224 3.83333 20.5888 4.54909 21.0292 5.64039L22.2333 8.625H6.76667L7.97077 5.64039ZM4.83333 15.3214C3.67333 15.3214 2.9 14.5571 2.9 13.4107C2.9 12.2643 3.67333 11.5 4.83333 11.5C5.99333 11.5 7.73333 13.2196 7.73333 14.366C7.73333 15.5124 5.99333 15.3214 4.83333 15.3214ZM24.1667 15.3214C23.0067 15.3214 21.2667 15.5124 21.2667 14.366C21.2667 13.2196 23.0067 11.5 24.1667 11.5C25.3267 11.5 26.1 12.2643 26.1 13.4107C26.1 14.5571 25.3267 15.3214 24.1667 15.3214Z" fill="white"/>
</svg>
