<svg width="19" height="25" viewBox="0 0 19 25" fill="none" xmlns="http://www.w3.org/2000/svg">
<path d="M9.34836 21.0615C9.68906 21.0615 10.7827 20.6064 12.3474 19.157C14.8332 16.8649 17.7355 12.8368 17.7355 9.04465C17.7355 6.80297 16.8465 4.65311 15.2642 3.06801C13.6818 1.48291 11.5357 0.592407 9.29788 0.592407C7.0601 0.592407 4.91396 1.48291 3.33161 3.06801C1.74925 4.65311 0.860293 6.80297 0.860293 9.04465C0.860293 15.0025 7.78787 20.9351 9.34836 21.0615ZM9.29788 4.00954C10.0932 4.00954 10.8706 4.24578 11.5319 4.68839C12.1932 5.131 12.7086 5.76011 13.0129 6.49614C13.3172 7.23218 13.3969 8.04209 13.2417 8.82346C13.0866 9.60484 12.7036 10.3226 12.1412 10.8859C11.5789 11.4492 10.8624 11.8329 10.0824 11.9883C9.30234 12.1437 8.49384 12.064 7.75907 11.7591C7.02431 11.4542 6.3963 10.9379 5.95446 10.2755C5.51261 9.61309 5.27678 8.8343 5.27678 8.03762C5.27789 6.96965 5.7019 5.94574 6.45576 5.19057C7.20963 4.4354 8.23176 4.01065 9.29788 4.00954ZM18.4674 21.8536C18.4674 22.6415 15.2328 24.171 9.29788 24.171C3.36297 24.171 0.128418 22.6415 0.128418 21.8536C0.128418 21.3269 1.64264 20.3494 5.016 19.8438C5.07461 19.8345 5.13139 19.816 5.18424 19.789C6.76577 21.2848 8.31364 22.2455 9.24741 22.3171H9.36518C10.627 22.3171 12.4651 20.7623 13.2054 20.0797C13.298 19.9955 13.3905 19.9028 13.483 19.8101C13.5147 19.8204 13.5471 19.8289 13.5798 19.8354C16.9531 20.3494 18.4674 21.3269 18.4674 21.8536Z" fill="white"/>
</svg>
