<svg width="46" height="52" viewBox="0 0 46 52" fill="none" xmlns="http://www.w3.org/2000/svg">
<path d="M17.6389 19.6409C17.7148 19.7097 17.804 19.7606 17.9004 19.7902C17.9968 19.8199 18.0982 19.8275 18.1977 19.8126C19.8175 19.5721 21.4618 19.5721 23.0816 19.8126C23.1143 19.8174 23.1472 19.8198 23.1802 19.8198C23.2722 19.8201 23.3633 19.8014 23.4483 19.7649C23.5333 19.7283 23.6106 19.6747 23.6757 19.607C23.7408 19.5392 23.7924 19.4588 23.8277 19.3702C23.8629 19.2817 23.881 19.1867 23.881 19.0908V17.9627C23.8819 17.7889 23.8229 17.6206 23.7149 17.4883C23.6068 17.356 23.4568 17.2685 23.2922 17.2417C22.9207 17.1805 22.5473 17.1319 22.1728 17.0963C22.1771 17.047 22.18 16.9975 22.18 16.9472V16.5229C22.18 16.4297 22.1445 16.3403 22.0812 16.2743C22.018 16.2084 21.9322 16.1713 21.8428 16.1713C21.7533 16.1713 21.6676 16.2084 21.6043 16.2743C21.5411 16.3403 21.5056 16.4297 21.5056 16.5229V16.9472C21.5073 17.0668 21.4861 17.1857 21.4434 17.2967C21.4007 17.4078 21.3372 17.5089 21.2566 17.5942C21.1761 17.6794 21.0801 17.7471 20.9742 17.7933C20.8683 17.8395 20.7547 17.8633 20.6399 17.8633C20.5251 17.8633 20.4114 17.8395 20.3056 17.7933C20.1997 17.7471 20.1037 17.6794 20.0231 17.5942C19.9426 17.5089 19.8791 17.4078 19.8363 17.2967C19.7936 17.1857 19.7725 17.0668 19.7742 16.9472V16.5229C19.7742 16.4297 19.7387 16.3403 19.6754 16.2743C19.6122 16.2084 19.5264 16.1713 19.437 16.1713C19.3475 16.1713 19.2618 16.2084 19.1985 16.2743C19.1353 16.3403 19.0997 16.4297 19.0997 16.5229V16.9472C19.0997 16.9974 19.1026 17.0467 19.1069 17.0956C18.7303 17.1312 18.3552 17.18 17.9876 17.2417C17.8229 17.2685 17.6729 17.356 17.5649 17.4883C17.4568 17.6206 17.3978 17.7889 17.3987 17.9627V19.0908C17.3986 19.1951 17.42 19.2982 17.4615 19.3931C17.5029 19.488 17.5634 19.5725 17.6389 19.6409ZM18.0732 17.9627C18.0729 17.9564 18.0749 17.9502 18.0787 17.9453C18.0825 17.9403 18.088 17.9371 18.094 17.9361C18.4986 17.8683 18.9125 17.8175 19.3271 17.7828C19.464 18.0179 19.6567 18.2123 19.8866 18.3473C20.1165 18.4822 20.3759 18.5531 20.6397 18.5532C20.9035 18.5532 21.1629 18.4823 21.3928 18.3475C21.6228 18.2126 21.8155 18.0182 21.9524 17.7831C22.3654 17.8182 22.7795 17.869 23.1866 17.9363C23.1925 17.9374 23.1977 17.9407 23.2014 17.9456C23.2051 17.9504 23.2069 17.9565 23.2066 17.9627V19.0908C23.2068 19.0944 23.2061 19.098 23.2048 19.1014C23.2034 19.1047 23.2013 19.1076 23.1986 19.1099C23.1955 19.1126 23.1919 19.1146 23.188 19.1158C23.1841 19.1169 23.18 19.1171 23.176 19.1164C22.3482 18.9939 21.5132 18.9313 20.6772 18.9291C19.8159 18.9265 18.9557 18.9891 18.1031 19.1163C18.0992 19.1172 18.0953 19.117 18.0915 19.1159C18.0877 19.1148 18.0842 19.1128 18.0812 19.11C18.0786 19.1077 18.0765 19.1048 18.0751 19.1015C18.0737 19.0981 18.073 19.0945 18.0732 19.0909V17.9627ZM16.9995 13.5614C16.9101 13.5614 16.8243 13.5984 16.7611 13.6643C16.6978 13.7303 16.6623 13.8197 16.6623 13.913V14.7221C16.6623 14.8154 16.6978 14.9048 16.7611 14.9708C16.8243 15.0367 16.9101 15.0737 16.9995 15.0737C17.089 15.0737 17.1747 15.0367 17.238 14.9708C17.3012 14.9048 17.3368 14.8154 17.3368 14.7221V13.913C17.3368 13.8197 17.3012 13.7303 17.238 13.6643C17.1747 13.5984 17.089 13.5614 16.9995 13.5614ZM18.0912 13.1197C18.1321 13.1373 18.176 13.1462 18.2203 13.146C18.2646 13.1459 18.3084 13.1366 18.3493 13.1188C18.3901 13.101 18.4272 13.0749 18.4584 13.0422C18.4896 13.0094 18.5143 12.9705 18.5311 12.9278C18.5479 12.8851 18.5565 12.8393 18.5564 12.7932C18.5562 12.747 18.5473 12.7013 18.5302 12.6587C18.5131 12.6161 18.4882 12.5774 18.4567 12.5449C18.4253 12.5124 18.388 12.4866 18.3471 12.4691C17.4838 12.099 16.5153 12.099 15.652 12.4691C15.611 12.4866 15.5738 12.5124 15.5424 12.5449C15.5109 12.5775 15.486 12.6162 15.4689 12.6588C15.4518 12.7014 15.4429 12.7471 15.4428 12.7933C15.4426 12.8394 15.4512 12.8852 15.468 12.9279C15.4848 12.9706 15.5096 13.0095 15.5408 13.0423C15.572 13.075 15.6091 13.1011 15.65 13.1189C15.6908 13.1367 15.7347 13.1459 15.779 13.1461C15.8232 13.1462 15.8671 13.1373 15.9081 13.1197C16.2317 12.9808 16.577 12.9049 16.9268 12.8957C17.3255 12.8864 17.7219 12.9626 18.0912 13.1197ZM44.6345 28.5303C44.5591 28.3955 44.451 28.2838 44.321 28.2066C44.191 28.1293 44.0438 28.0892 43.8941 28.0903H43.8903C43.7381 28.09 43.5886 28.1317 43.4569 28.2112C43.3252 28.2908 43.2161 28.4053 43.1407 28.5431L41.7594 31.0376C41.7468 31.0604 41.7301 31.0803 41.7101 31.0963C41.6901 31.1123 41.6673 31.124 41.6429 31.1308C41.6186 31.1376 41.5932 31.1393 41.5682 31.1359C41.5433 31.1324 41.5192 31.1239 41.4974 31.1107L39.7564 30.0628C39.7123 30.0362 39.6802 29.9925 39.667 29.9413C39.6538 29.8901 39.6607 29.8355 39.686 29.7895L41.0026 27.412C41.0807 27.271 41.1208 27.1106 41.1186 26.9478C41.1165 26.785 41.0722 26.6258 40.9904 26.4871C40.9087 26.3484 40.7925 26.2352 40.6542 26.1597C40.5158 26.0841 40.3605 26.0489 40.2046 26.0578C39.0398 26.1255 37.9376 26.6295 37.1009 27.477C36.2641 28.3246 35.7491 29.4587 35.6507 30.6707L33.8714 30.111V29.9483C33.872 29.788 33.8234 29.6319 33.7326 29.5026C33.6418 29.3734 33.5136 29.2779 33.3669 29.2302L30.7582 28.3711C30.5779 28.3119 30.3825 28.3288 30.214 28.4182C30.0455 28.5076 29.9174 28.6623 29.8571 28.8491L27.0037 27.9521C26.5957 27.8247 26.2238 27.5954 25.9201 27.284C25.9111 27.2707 25.9013 27.258 25.8906 27.2462C25.8838 27.239 25.8759 27.2338 25.8687 27.2275C25.4064 26.7244 25.1491 26.0541 25.1509 25.3574V25.2458C26.3533 24.3026 27.3296 23.0817 28.0032 21.6788C28.6768 20.2759 29.0294 18.7293 29.0332 17.1604V16.5885C29.6856 16.5022 30.2855 16.1709 30.7207 15.6567C31.1558 15.1425 31.3963 14.4806 31.3973 13.7948C31.3967 13.2082 31.1729 12.6458 30.775 12.2309C30.3772 11.8161 29.8377 11.5828 29.2751 11.5822H29.0332V5.56365C29.0316 4.12639 28.4833 2.74846 27.5086 1.73217C26.5339 0.715868 25.2123 0.1442 23.8338 0.142578L17.4459 0.142578C16.0674 0.1442 14.7459 0.715868 13.7711 1.73217C12.7964 2.74846 12.2481 4.12639 12.2466 5.56365V11.5822H12.0046C11.442 11.5828 10.9026 11.8161 10.5048 12.2309C10.1069 12.6457 9.88311 13.2081 9.88248 13.7947C9.88338 14.4805 10.1239 15.1424 10.559 15.6566C10.9942 16.1709 11.5941 16.5022 12.2466 16.5885V17.1604C12.2504 18.7293 12.6029 20.2759 13.2765 21.6788C13.9501 23.0817 14.9264 24.3026 16.1288 25.2458V25.3574C16.1306 26.0541 15.8733 26.7244 15.411 27.2275C15.4038 27.2338 15.3959 27.239 15.3892 27.2462C15.3785 27.258 15.3686 27.2706 15.3596 27.2839C15.056 27.5953 14.684 27.8247 14.2761 27.9521L11.4226 28.8491C11.3623 28.6622 11.2341 28.5074 11.0655 28.418C10.8969 28.3287 10.7013 28.3119 10.521 28.3713L7.9135 29.23C7.76667 29.2776 7.63837 29.3731 7.54744 29.5023C7.45651 29.6316 7.40776 29.7879 7.40835 29.9483V30.111L5.29446 30.7758C3.81435 31.2392 2.51676 32.1874 1.5939 33.4799C0.671031 34.7724 0.171977 36.3404 0.170654 37.9517V51.2251C0.170654 51.3184 0.206183 51.4078 0.269424 51.4737C0.332665 51.5397 0.418438 51.5767 0.507874 51.5767C0.59731 51.5767 0.683083 51.5397 0.746324 51.4737C0.809565 51.4078 0.845093 51.3184 0.845093 51.2251V45.2648H7.40835V46.6855L7.40815 46.6869V51.2251C7.40815 51.3184 7.44368 51.4078 7.50692 51.4737C7.57016 51.5397 7.65594 51.5767 7.74537 51.5767H7.74556C7.835 51.5767 7.92077 51.5397 7.98402 51.4737C8.04726 51.4078 8.08278 51.3184 8.08278 51.2251V29.9483C8.08277 29.9377 8.08598 29.9274 8.09193 29.9189C8.09789 29.9104 8.1063 29.9041 8.11593 29.9008L10.7235 29.0421C10.7308 29.0397 10.7385 29.0391 10.746 29.0404C10.7535 29.0416 10.7606 29.0448 10.7667 29.0495C10.7729 29.0542 10.7779 29.0603 10.7813 29.0674C10.7847 29.0746 10.7864 29.0824 10.7863 29.0903V33.9233C10.7866 34.203 10.8933 34.4711 11.083 34.6688C11.2726 34.8666 11.5298 34.9778 11.798 34.9781H29.4818C29.75 34.9778 30.0071 34.8666 30.1968 34.6688C30.3864 34.4711 30.4931 34.203 30.4934 33.9233V29.0903C30.4932 29.0824 30.4949 29.0744 30.4983 29.0673C30.5017 29.0601 30.5068 29.054 30.5131 29.0494C30.519 29.0445 30.526 29.0413 30.5335 29.04C30.5409 29.0387 30.5485 29.0393 30.5557 29.0419L33.1645 29.9009C33.174 29.9043 33.1822 29.9106 33.1881 29.9191C33.1939 29.9276 33.197 29.9378 33.197 29.9483V40.3219L28.5854 48.6498C28.3429 49.0978 28.2798 49.6275 28.4098 50.1237C28.5398 50.62 28.8525 51.0426 29.2798 51.2998C29.7071 51.557 30.2145 51.6279 30.6917 51.4971C31.1689 51.3663 31.5772 51.0443 31.8279 50.6013L33.1971 48.1287V51.2251C33.1971 51.3184 33.2326 51.4078 33.2958 51.4737C33.3591 51.5397 33.4448 51.5767 33.5343 51.5767C33.6237 51.5767 33.7095 51.5397 33.7727 51.4737C33.836 51.4078 33.8715 51.3184 33.8715 51.2251V46.9106L34.7826 45.265H40.4347V51.2251C40.4347 51.3184 40.4702 51.4078 40.5334 51.4737C40.5967 51.5397 40.6824 51.5767 40.7719 51.5767C40.8613 51.5767 40.9471 51.5397 41.0103 51.4737C41.0736 51.4078 41.1091 51.3184 41.1091 51.2251V37.9517C41.1088 37.3273 41.0335 36.7054 40.8847 36.1007C41.6988 36.0301 42.4823 35.745 43.1618 35.2722C43.8412 34.7994 44.3943 34.1543 44.7691 33.3976C45.144 32.6408 45.3283 31.7972 45.3047 30.9458C45.2812 30.0944 45.0505 29.2633 44.6345 28.5303ZM29.0332 12.2854H29.2751C29.6589 12.2858 30.0269 12.445 30.2983 12.7279C30.5697 13.0109 30.7224 13.3945 30.7228 13.7947C30.722 14.2938 30.552 14.7765 30.2428 15.1574C29.9336 15.5384 29.5051 15.793 29.0332 15.8764V12.2854ZM12.2466 15.8764C11.7747 15.793 11.3462 15.5384 11.037 15.1574C10.7278 14.7765 10.5578 14.2938 10.557 13.7947C10.5575 13.3945 10.7101 13.0109 10.9816 12.7279C11.253 12.445 11.6209 12.2858 12.0047 12.2854H12.2467L12.2466 15.8764ZM7.40835 44.5616H0.845093V37.9517C0.840258 36.4898 1.2903 35.0658 2.12768 33.8933C2.96505 32.7209 4.14457 31.8632 5.48918 31.4491L7.40835 30.8454V44.5616ZM28.3587 14.6615H28.2916C28.113 14.6613 27.9418 14.5872 27.8156 14.4556C27.6893 14.3239 27.6183 14.1454 27.6181 13.9593V9.73123H28.3587V14.6615ZM12.921 5.56355C12.9224 4.31275 13.3996 3.11358 14.2479 2.22913C15.0961 1.34469 16.2463 0.847188 17.4459 0.845779H23.8338C25.0335 0.847188 26.1836 1.3447 27.0319 2.22917C27.8802 3.11364 28.3574 4.31283 28.3587 5.56365V6.91842H12.921V5.56355ZM12.921 7.62162H28.3587V9.02802H12.921V7.62162ZM12.921 9.73123H13.6616V13.9591C13.6614 14.1452 13.5904 14.3237 13.4642 14.4554C13.3379 14.587 13.1667 14.6611 12.9882 14.6613H12.921V9.73123ZM12.921 17.1603V15.3645H12.9882C13.3455 15.364 13.6881 15.2158 13.9408 14.9524C14.1935 14.6889 14.3357 14.3317 14.3361 13.9591V9.73133H26.9437V13.9592C26.9441 14.3318 27.0862 14.689 27.3389 14.9525C27.5916 15.2159 27.9342 15.3641 28.2916 15.3646H28.3587V17.1604C28.3548 18.8086 27.9373 20.4269 27.1477 21.8547C26.3581 23.2825 25.2239 24.47 23.8578 25.2992C22.8803 25.8907 21.7701 26.2023 20.6399 26.2023C19.5096 26.2023 18.3995 25.8907 17.4219 25.2992C16.0558 24.47 14.9217 23.2825 14.1321 21.8547C13.3425 20.4269 12.925 18.8086 12.921 17.1604V17.1603ZM16.7848 25.7183C16.8831 25.7829 16.9825 25.8458 17.0832 25.9072C18.1636 26.561 19.3906 26.9055 20.6399 26.9055C21.8891 26.9055 23.1162 26.561 24.1966 25.9072C24.2974 25.8461 24.3969 25.7831 24.495 25.7183C24.558 26.3603 24.7956 26.9703 25.1798 27.4763C23.9348 28.648 22.3171 29.2967 20.6399 29.2967C18.9626 29.2967 17.345 28.648 16.0999 27.4763C16.4841 26.9703 16.7217 26.3603 16.7848 25.7183ZM29.819 33.9233C29.8189 34.0166 29.7833 34.1059 29.7201 34.1718C29.6569 34.2378 29.5712 34.2748 29.4818 34.2749H11.798C11.7086 34.2748 11.6229 34.2378 11.5596 34.1718C11.4964 34.1059 11.4609 34.0166 11.4608 33.9233V29.5715L14.4707 28.6252C14.8943 28.4929 15.2881 28.2733 15.6288 27.9793C16.9998 29.2795 18.7866 30 20.6399 30C22.4932 30 24.2799 29.2795 25.651 27.9793C25.9916 28.2733 26.3854 28.4929 26.8091 28.6252L29.819 29.5715V33.9233ZM33.8714 30.8454L35.6448 31.4034C35.6675 31.771 35.7284 32.135 35.8263 32.489C35.9909 33.0858 36.26 33.6458 36.6199 34.1405L33.8714 39.1039V30.8454ZM31.244 50.2495C31.1654 50.3915 31.0607 50.5159 30.9359 50.6158C30.8112 50.7156 30.6688 50.7888 30.5169 50.8313C30.365 50.8737 30.2065 50.8846 30.0506 50.8632C29.8947 50.8418 29.7443 50.7886 29.6081 50.7066C29.4719 50.6246 29.3525 50.5155 29.2568 50.3854C29.1611 50.2553 29.0908 50.1068 29.0501 49.9485C29.0094 49.7901 28.999 49.6249 29.0195 49.4623C29.04 49.2998 29.0911 49.143 29.1697 49.001L37.0911 34.6959C37.4266 35.0363 37.8074 35.3245 38.2217 35.5518C38.5224 35.7162 38.8393 35.8463 39.1667 35.94L31.244 50.2495ZM40.4347 44.5618H35.1719L39.8647 36.086C39.9732 36.0995 40.082 36.1092 40.1911 36.1151C40.3528 36.7127 40.4348 37.3307 40.4347 37.9517V44.5618ZM43.9619 33.448C43.6088 34.0153 43.1336 34.4888 42.5739 34.8307C42.0143 35.1726 41.3857 35.3734 40.7385 35.4171C40.0912 35.4608 39.4431 35.3462 38.8458 35.0824C38.2486 34.8187 37.7187 34.4131 37.2984 33.8979C37.295 33.8931 37.2909 33.8889 37.2872 33.8843C36.912 33.4196 36.635 32.8777 36.4743 32.2939C36.3696 31.9163 36.3143 31.5258 36.3098 31.1327C36.3097 31.1264 36.3102 31.1201 36.3097 31.1139C36.3044 30.0007 36.7096 28.9281 37.4415 28.1177C38.1734 27.3073 39.1761 26.8212 40.2421 26.7598L40.2542 26.7595C40.2878 26.76 40.3206 26.7696 40.3495 26.7873C40.3784 26.8051 40.4024 26.8305 40.419 26.8609C40.4356 26.8913 40.4443 26.9257 40.4442 26.9607C40.4442 26.9957 40.4353 27.0301 40.4186 27.0604L39.102 29.4379C38.9874 29.6455 38.9564 29.8919 39.0159 30.1232C39.0753 30.3545 39.2204 30.5518 39.4191 30.6717L41.1602 31.7198C41.2587 31.7791 41.3674 31.8176 41.4802 31.8331C41.593 31.8486 41.7076 31.8408 41.8175 31.8101C41.9274 31.7794 42.0304 31.7264 42.1207 31.6542C42.2109 31.582 42.2866 31.4919 42.3435 31.3892L43.7249 28.8947C43.7417 28.8637 43.7662 28.838 43.7958 28.8202C43.8254 28.8024 43.859 28.7932 43.8932 28.7935H43.8941C43.9263 28.7927 43.958 28.801 43.986 28.8174C44.014 28.8338 44.0373 28.8579 44.0533 28.8869C44.4475 29.5804 44.6479 30.3751 44.6317 31.1811C44.6155 31.9871 44.3836 32.7723 43.9619 33.448ZM23.1887 13.1197C23.5123 12.9808 23.8575 12.9049 24.2074 12.8957C24.6061 12.8864 25.0024 12.9627 25.3717 13.1197C25.4545 13.1551 25.5473 13.1548 25.6298 13.1188C25.7124 13.0828 25.7778 13.0141 25.8117 12.9278C25.8456 12.8415 25.8453 12.7447 25.8108 12.6587C25.7763 12.5727 25.7104 12.5045 25.6276 12.4691C24.7643 12.099 23.7959 12.099 22.9326 12.4691C22.8916 12.4866 22.8543 12.5124 22.8229 12.5449C22.7915 12.5775 22.7665 12.6162 22.7494 12.6588C22.7149 12.7448 22.7146 12.8416 22.7486 12.9279C22.7826 13.0142 22.848 13.0829 22.9305 13.1189C23.0131 13.1548 23.1059 13.1552 23.1887 13.1197ZM24.2802 13.5614C24.1908 13.5614 24.105 13.5984 24.0418 13.6643C23.9785 13.7303 23.943 13.8197 23.943 13.913V14.7221C23.943 14.8154 23.9785 14.9048 24.0418 14.9708C24.105 15.0367 24.1908 15.0737 24.2802 15.0737C24.3696 15.0737 24.4554 15.0367 24.5187 14.9708C24.5819 14.9048 24.6174 14.8154 24.6174 14.7221V13.913C24.6174 13.8197 24.5819 13.7303 24.5187 13.6643C24.4554 13.5984 24.3696 13.5614 24.2802 13.5614ZM21.7315 20.8763C21.3623 21.0335 20.9659 21.1098 20.5671 21.1003C20.2173 21.0911 19.872 21.0152 19.5483 20.8763C19.4657 20.8415 19.3733 20.8423 19.2912 20.8784C19.2091 20.9145 19.1441 20.9829 19.1102 21.0689C19.0764 21.1548 19.0766 21.2512 19.1107 21.337C19.1448 21.4228 19.2101 21.491 19.2923 21.5268C19.6919 21.6983 20.1182 21.7919 20.5501 21.8032C20.579 21.804 20.608 21.8044 20.6371 21.8044C21.1001 21.8036 21.5586 21.7094 21.9873 21.5268C22.029 21.5098 22.067 21.4843 22.0991 21.4519C22.1312 21.4194 22.1568 21.3806 22.1744 21.3377C22.192 21.2948 22.2012 21.2487 22.2016 21.2021C22.2019 21.1554 22.1933 21.1092 22.1764 21.066C22.1594 21.0229 22.1344 20.9837 22.1027 20.9507C22.0711 20.9177 22.0335 20.8917 21.9921 20.874C21.9507 20.8563 21.9063 20.8474 21.8616 20.8478C21.8168 20.8482 21.7726 20.8579 21.7315 20.8763Z" fill="white"/>
</svg>
